<svg width="64" height="48" viewBox="0 0 64 48" fill="none" xmlns="http://www.w3.org/2000/svg">
<path d="M21.498 34.4477C29.0757 34.4477 35.2186 28.191 35.2186 20.4731C35.2186 12.7551 29.0757 6.4985 21.498 6.4985C13.9203 6.4985 7.77734 12.7551 7.77734 20.4731C7.77734 28.191 13.9203 34.4477 21.498 34.4477Z" stroke="#0E645F" stroke-width="4" stroke-linecap="round" stroke-linejoin="round"/>
<path d="M39.2812 7.00911C40.4942 6.67407 41.7449 6.5024 43.0017 6.4985C46.6406 6.4985 50.1305 7.97082 52.7036 10.5916C55.2767 13.2123 56.7223 16.7668 56.7223 20.4731C56.7223 24.1794 55.2767 27.7339 52.7036 30.3546C50.1305 32.9753 46.6406 34.4477 43.0017 34.4477" stroke="#0E645F" stroke-width="4" stroke-linecap="round" stroke-linejoin="round"/>
<path d="M2.5 44.4985C4.64239 41.3934 7.48702 38.859 10.7936 37.1095C14.1002 35.3599 17.7716 34.4466 21.4978 34.4466C25.224 34.4466 28.8954 35.3599 32.202 37.1095C35.5086 38.859 38.3532 41.3934 40.4956 44.4985" stroke="#0E645F" stroke-width="4" stroke-linecap="round" stroke-linejoin="round"/>
<path d="M43.0022 34.4475C46.7287 34.4452 50.4008 35.3574 53.7078 37.107C57.0147 38.8566 59.8591 41.3919 62 44.4985" stroke="#0E645F" stroke-width="4" stroke-linecap="round" stroke-linejoin="round"/>
</svg>
