<svg width="52" height="52" viewBox="0 0 52 52" fill="none" xmlns="http://www.w3.org/2000/svg">
<path d="M37.0596 38.2034L5.25649 49.7448C4.92428 49.8718 4.56241 49.8999 4.21457 49.8257C3.86674 49.7516 3.54782 49.5783 3.29634 49.3268C3.04485 49.0753 2.87155 48.7564 2.79736 48.4085C2.72317 48.0607 2.75126 47.6988 2.87825 47.3666L14.4197 15.5635C14.5271 15.268 14.7074 15.0045 14.9439 14.7973C15.1805 14.5902 15.4655 14.4462 15.7726 14.3788C16.0796 14.3113 16.3988 14.3226 16.7003 14.4115C17.0019 14.5004 17.2761 14.6641 17.4974 14.8873L37.7358 35.1257C37.959 35.347 38.1227 35.6212 38.2116 35.9228C38.3005 36.2243 38.3118 36.5435 38.2443 36.8505C38.1769 37.1576 38.0329 37.4426 37.8258 37.6792C37.6186 37.9157 37.3551 38.096 37.0596 38.2034V38.2034Z" stroke="#0E645F" stroke-width="4" stroke-linecap="round" stroke-linejoin="round"/>
<path d="M32.2798 16.6122C32.2798 16.6122 32.2798 11.0163 37.8756 11.0163C43.4715 11.0163 43.4715 5.42044 43.4715 5.42044" stroke="#0E645F" stroke-width="4" stroke-linecap="round" stroke-linejoin="round"/>
<path d="M17.9178 45.1513L7.47217 34.7057" stroke="#0E645F" stroke-width="4" stroke-linecap="round" stroke-linejoin="round"/>
<path d="M25.7512 2.62253V8.21838" stroke="#0E645F" stroke-width="4" stroke-linecap="round" stroke-linejoin="round"/>
<path d="M44.4041 26.8712L48.1346 30.6018" stroke="#0E645F" stroke-width="4" stroke-linecap="round" stroke-linejoin="round"/>
<path d="M44.4041 18.4774L49.9999 16.6122" stroke="#0E645F" stroke-width="4" stroke-linecap="round" stroke-linejoin="round"/>
<path d="M11.458 23.7698L28.8518 41.1636" stroke="#0E645F" stroke-width="4" stroke-linecap="round" stroke-linejoin="round"/>
</svg>
