<svg width="60" height="61" viewBox="0 0 60 61" fill="none" xmlns="http://www.w3.org/2000/svg">
<path d="M5.625 43.3812V38.014C5.625 24.5374 16.4531 13.428 29.9062 13.3812C33.1151 13.3688 36.2948 13.9902 39.263 15.2096C42.2311 16.4291 44.9292 18.2225 47.2026 20.4872C49.476 22.7519 51.2798 25.4431 52.5106 28.4065C53.7415 31.37 54.375 34.5473 54.375 37.7562V43.3812C54.375 43.8784 54.1775 44.3554 53.8258 44.707C53.4742 45.0586 52.9973 45.2562 52.5 45.2562H7.5C7.00272 45.2562 6.52581 45.0586 6.17417 44.707C5.82254 44.3554 5.625 43.8784 5.625 43.3812Z" stroke="#0E645F" stroke-width="4" stroke-linecap="round" stroke-linejoin="round"/>
<path d="M30 13.381V20.881" stroke="#0E645F" stroke-width="4" stroke-linecap="round" stroke-linejoin="round"/>
<path d="M6.44531 31.452L13.7109 33.3973" stroke="#0E645F" stroke-width="4" stroke-linecap="round" stroke-linejoin="round"/>
<path d="M53.5547 31.452L46.2891 33.3973" stroke="#0E645F" stroke-width="4" stroke-linecap="round" stroke-linejoin="round"/>
<path d="M24.2336 45.2553L40.2649 24.3725" stroke="#0E645F" stroke-width="4" stroke-linecap="round" stroke-linejoin="round"/>
</svg>
