<svg width="52" height="53" viewBox="0 0 52 53" fill="none" xmlns="http://www.w3.org/2000/svg">
<path d="M26 50.7451C39.2548 50.7451 50 39.9999 50 26.7451C50 13.4902 39.2548 2.74506 26 2.74506C12.7452 2.74506 2 13.4902 2 26.7451C2 39.9999 12.7452 50.7451 26 50.7451Z" stroke="#0E645F" stroke-width="4" stroke-linecap="round" stroke-linejoin="round"/>
<path d="M19 21.7451C19 22.8496 18.1046 23.7451 17 23.7451C15.8954 23.7451 15 22.8496 15 21.7451C15 20.6405 15.8954 19.7451 17 19.7451C18.1046 19.7451 19 20.6405 19 21.7451Z" fill="#FFD526" stroke="#0E645F" stroke-width="4"/>
<path d="M37 21.7451C37 22.8496 36.1046 23.7451 35 23.7451C33.8954 23.7451 33 22.8496 33 21.7451C33 20.6405 33.8954 19.7451 35 19.7451C36.1046 19.7451 37 20.6405 37 21.7451Z" fill="#FFD526" stroke="#0E645F" stroke-width="4"/>
<path d="M36.4001 32.7451C35.3428 34.5666 33.8257 36.0784 32.0005 37.1294C30.1754 38.1803 28.1062 38.7334 26.0001 38.7334C23.894 38.7334 21.8248 38.1803 19.9997 37.1294C18.1745 36.0784 16.6574 34.5666 15.6001 32.7451" stroke="#0E645F" stroke-width="4" stroke-linecap="round" stroke-linejoin="round"/>
</svg>
