<svg width="49" height="49" viewBox="0 0 49 49" fill="none" xmlns="http://www.w3.org/2000/svg">
<path d="M13.3574 23.2057L31.4824 3.26822L45.9371 3.2229L45.8918 17.6776L25.9543 35.8026" stroke="#0E645F" stroke-width="4" stroke-linecap="round" stroke-linejoin="round"/>
<path d="M19.6562 29.5042L33.25 15.9104" stroke="#0E645F" stroke-width="4" stroke-linecap="round" stroke-linejoin="round"/>
<path d="M15.6013 40.7186L10.6396 45.6803C10.2998 46.0192 9.83949 46.2096 9.35954 46.2096C8.8796 46.2096 8.41925 46.0192 8.07947 45.6803L3.48025 41.0811C3.14128 40.7413 2.95093 40.2809 2.95093 39.801C2.95093 39.321 3.14128 38.8607 3.48025 38.5209L8.44196 33.5592C8.61322 33.3905 8.74922 33.1895 8.84205 32.9678C8.93488 32.7461 8.98268 32.5081 8.98268 32.2678C8.98268 32.0274 8.93488 31.7895 8.84205 31.5678C8.74922 31.3461 8.61322 31.145 8.44196 30.9764L4.63571 27.1701C4.46446 27.0015 4.32846 26.8004 4.23563 26.5787C4.1428 26.357 4.095 26.1191 4.095 25.8787C4.095 25.6384 4.1428 25.4004 4.23563 25.1787C4.32846 24.957 4.46446 24.756 4.63571 24.5873L8.39665 20.8264C8.5653 20.6551 8.76633 20.5191 8.98804 20.4263C9.20975 20.3335 9.4477 20.2857 9.68806 20.2857C9.92842 20.2857 10.1664 20.3335 10.3881 20.4263C10.6098 20.5191 10.8108 20.6551 10.9795 20.8264L28.3342 38.1811C28.5054 38.3497 28.6414 38.5507 28.7342 38.7725C28.8271 38.9942 28.8749 39.2321 28.8749 39.4725C28.8749 39.7128 28.8271 39.9508 28.7342 40.1725C28.6414 40.3942 28.5054 40.5952 28.3342 40.7639L24.5732 44.5248C24.4046 44.6961 24.2035 44.8321 23.9818 44.9249C23.7601 45.0177 23.5222 45.0655 23.2818 45.0655C23.0415 45.0655 22.8035 45.0177 22.5818 44.9249C22.3601 44.8321 22.1591 44.6961 21.9904 44.5248L18.1842 40.7186C18.0155 40.5473 17.8145 40.4113 17.5928 40.3185C17.3711 40.2257 17.1331 40.1778 16.8927 40.1778C16.6524 40.1778 16.4144 40.2257 16.1927 40.3185C15.971 40.4113 15.77 40.5473 15.6013 40.7186Z" stroke="#0E645F" stroke-width="4" stroke-linecap="round" stroke-linejoin="round"/>
</svg>
