<svg xmlns="http://www.w3.org/2000/svg" width="162" height="160" viewBox="0 0 162 160" fill="none">
<path fill-rule="evenodd" clip-rule="evenodd" d="M68.8343 6.73608C68.5612 7.59288 68.4441 8.56651 68.5221 9.57909C68.6002 10.5917 68.9513 11.4485 69.3415 12.3053C69.7316 13.1621 70.2779 13.8631 70.9411 14.4473C71.6044 14.9925 72.3847 15.4598 73.2431 15.7325C74.1014 16.0051 75.0378 16.1219 76.0522 16.044C77.0666 15.9661 77.964 15.7325 78.7833 15.3041C79.6027 14.8757 80.305 14.3304 80.8902 13.6684C81.4754 13.0063 81.9046 12.2274 82.1777 11.3316C82.4508 10.4359 82.5679 9.5012 82.4898 8.48862C82.4118 7.47604 82.1387 6.54135 81.7485 5.7235C81.3584 4.90565 80.8122 4.20463 80.1489 3.62045C79.4856 3.07521 78.7053 2.60787 77.847 2.33525C76.9496 2.06263 76.0132 1.9458 74.9988 2.02369C73.9844 2.10158 73.048 2.33525 72.2287 2.76365C71.3703 3.19205 70.707 3.73729 70.1218 4.39936C69.5366 5.06143 69.1074 5.84034 68.8343 6.73608ZM71.1752 11.4095C70.9021 10.8253 70.707 10.1633 70.668 9.42331C70.629 8.68335 70.707 8.02128 70.9021 7.39815C71.0972 6.77503 71.4093 6.19085 71.7995 5.7235C72.1896 5.21721 72.6578 4.8667 73.2431 4.55514C73.7893 4.28252 74.4136 4.08779 75.1158 4.04885C75.8181 4.0099 76.4424 4.08779 77.0666 4.28252C77.6909 4.47725 78.1981 4.78881 78.6663 5.21721C79.1345 5.64561 79.5246 6.1519 79.7977 6.73608C80.0709 7.32026 80.2659 7.98233 80.305 8.7223C80.344 9.42331 80.2659 10.1243 80.0709 10.7475C79.8368 11.3706 79.5637 11.9548 79.1735 12.4221C78.7833 12.9284 78.3151 13.2789 77.7299 13.5905C77.1837 13.8631 76.5594 14.0578 75.8571 14.0968C75.1549 14.1357 74.5306 14.0578 73.9063 13.8631C73.2821 13.6684 72.7749 13.3568 72.3067 12.9284C71.8385 12.5 71.4483 11.9937 71.1752 11.4095ZM53.7352 6.69712L54.5545 8.52756L48.8972 11.0201C48.7411 11.098 48.507 11.1758 48.2339 11.2537L48.1769 11.2701L48.1169 11.2876C47.8933 11.3527 47.6983 11.4095 47.5316 11.4095L47.4926 11.8379L47.4927 11.8379C47.6487 11.9158 47.7267 11.9548 47.8438 12.0326L48.0779 12.2663C48.1559 12.3831 48.2339 12.5 48.2729 12.6558C48.295 12.744 48.3421 12.8321 48.393 12.9274C48.432 13.0004 48.4732 13.0776 48.507 13.1621C48.7021 13.5515 48.8192 13.8631 48.8582 14.0967C48.9362 14.3304 48.8972 14.5641 48.8192 14.8367L49.1703 15.0704C49.2874 14.9146 49.4824 14.7978 49.7556 14.642C49.9188 14.5334 50.082 14.4626 50.2188 14.4033C50.2782 14.3776 50.3326 14.354 50.3798 14.3304L55.3348 12.1495L56.1542 13.9799L51.1991 16.1609C51.0431 16.2387 50.809 16.3166 50.5359 16.3945C50.496 16.4059 50.457 16.4173 50.4188 16.4284C50.1953 16.4935 50.0002 16.5503 49.8336 16.5503L49.7946 16.9787C50.0677 17.0955 50.2628 17.2903 50.4188 17.5239C50.4402 17.5667 50.4643 17.6134 50.4902 17.6637L50.4906 17.6645L50.4907 17.6647L50.4907 17.6648C50.6064 17.8894 50.7597 18.1871 50.887 18.5365C51.0821 18.9649 51.1991 19.2765 51.2772 19.5102C51.3552 19.7438 51.3552 20.0164 51.2382 20.2891L51.5893 20.5227C51.7063 20.367 51.9014 20.2501 52.1745 20.0943C52.3649 19.9857 52.5174 19.915 52.6452 19.8557L52.6452 19.8557C52.7007 19.8299 52.7515 19.8064 52.7988 19.7828L58.6122 17.2124L59.4315 19.0428L50.5359 23.0152L44.9956 10.5527L53.7352 6.69712ZM30.1696 20.367L38.2459 31.3885L42.3035 28.3897C43.1619 27.7666 43.8251 27.0656 44.2933 26.2867C44.7615 25.5078 45.0736 24.6899 45.1907 23.8721C45.3468 23.0153 45.2687 22.1974 45.0346 21.3406C44.8005 20.4838 44.3714 19.7049 43.8251 18.926C43.2399 18.1471 42.5766 17.485 41.8353 16.9787C41.094 16.4724 40.2747 16.1609 39.4553 16.0051C38.636 15.8493 37.7777 15.9272 36.8803 16.1219C35.9829 16.3167 35.1246 16.7451 34.2272 17.4071L30.1696 20.367ZM37.2705 26.4425L34.6174 22.8205C34.3052 22.4311 33.9931 22.0806 33.681 21.808C33.3689 21.4964 33.0567 21.3017 32.7446 21.2627L32.7056 20.8343C32.8226 20.8343 32.9397 20.7954 33.0567 20.7175L33.0568 20.7175C33.1738 20.6396 33.2908 20.5617 33.4469 20.4838C33.603 20.4059 33.72 20.328 33.8371 20.2501C33.8884 20.216 33.9322 20.1818 33.9718 20.151C34.0225 20.1114 34.0664 20.0773 34.1102 20.0554L35.4757 19.0428C36.1 18.5755 36.6852 18.3029 37.3095 18.1471C37.9337 17.9913 38.519 17.9913 39.1042 18.1081C39.6894 18.225 40.2357 18.4976 40.7429 18.8481C41.2501 19.1986 41.7183 19.666 42.1474 20.2501C42.4986 20.7954 42.8107 21.3406 42.9668 21.9248C43.1228 22.509 43.2009 23.0931 43.1228 23.6773C43.0448 24.2615 42.8497 24.8067 42.5376 25.352C42.2255 25.8972 41.7573 26.4035 41.1721 26.8319L39.8065 27.8445C39.7627 27.8664 39.7189 27.9005 39.6681 27.94C39.6285 27.9709 39.5847 28.0051 39.5334 28.0392C39.4163 28.1171 39.2993 28.195 39.1822 28.3118L38.8701 28.6234C38.7531 28.7013 38.675 28.8181 38.636 28.896L38.2459 28.7402C38.2849 28.4287 38.2068 28.0782 38.0118 27.6498C37.8167 27.2603 37.5436 26.8319 37.2705 26.4425ZM25.2535 25.0015L26.7751 26.3256L22.7175 30.9601C22.683 30.9945 22.6451 31.0357 22.6029 31.0817L22.6029 31.0817L22.6028 31.0817C22.5017 31.1917 22.3754 31.3291 22.2103 31.4664C22.0152 31.6611 21.8201 31.8169 21.625 31.8948L21.7421 32.2842H21.7421C21.8982 32.2842 22.0152 32.2842 22.1322 32.3232C22.1908 32.3427 22.2395 32.3621 22.2883 32.3816C22.3371 32.4011 22.3859 32.4206 22.4444 32.44L22.7955 32.6737C22.8498 32.7279 22.9126 32.7821 22.9798 32.8403C23.0574 32.9074 23.1411 32.9797 23.2247 33.0632L23.2968 33.1261L23.2968 33.1261L23.2969 33.1262C23.5785 33.3717 23.8191 33.5816 23.927 33.7252C24.083 33.881 24.1611 34.1147 24.2001 34.4262L24.6293 34.5041C24.7073 34.3094 24.8243 34.1147 24.9804 33.881C25.1365 33.6473 25.2925 33.4526 25.4096 33.3358L28.96 29.2854L30.4817 30.6096L26.9312 34.6599C26.8967 34.6943 26.8588 34.7355 26.8166 34.7815C26.7154 34.8915 26.5891 35.0289 26.424 35.1662C26.2289 35.3609 26.0338 35.5167 25.8388 35.5946L25.9558 35.9841C26.2679 35.9841 26.502 36.0619 26.7361 36.2177C26.9702 36.3735 27.2433 36.6072 27.5945 36.9187C27.9456 37.2303 28.1797 37.4639 28.3747 37.6586L28.3748 37.6587C28.5699 37.8534 28.6479 38.0871 28.6869 38.3987L29.1161 38.4766C29.1941 38.2818 29.3112 38.0871 29.4672 37.8534C29.6233 37.6198 29.7794 37.425 29.8964 37.3082L34.1492 32.5179L35.6708 33.8421L29.2722 41.1248L19.011 32.1674L25.2535 25.0015ZM21.313 47.4341L12.4564 42.2154L11.3639 44.0458L23.1467 50.9392L27.6726 43.2669L25.9168 42.2543L23.4588 46.4604C23.2248 46.8499 23.0687 47.2004 23.0297 47.512C22.9907 47.8235 22.9907 48.0572 22.9907 48.2909L22.5615 48.4467C22.4444 48.2909 22.2884 48.1351 22.0933 47.9793C21.9267 47.813 21.7032 47.6751 21.447 47.5171L21.3745 47.4723L21.313 47.4341ZM8.51573 63.2848C9.25703 63.869 10.1154 64.3363 11.0908 64.6479C12.1052 64.9594 13.0806 65.0763 13.978 64.9594C14.8753 64.8816 15.7337 64.6479 16.475 64.2584C17.2163 63.869 17.8796 63.3237 18.4258 62.6227C18.972 61.9217 19.4012 61.1039 19.7133 60.1692C19.9864 59.2345 20.0644 58.4556 19.9084 57.7545C19.7913 57.0925 19.4402 56.5083 18.972 56.041L19.089 55.7294L20.7277 56.2746L21.313 54.4052L14.4852 52.2243L12.6904 57.8324L14.4852 58.4166L15.2265 56.1188L15.25 56.0255C15.3195 55.7518 15.3825 55.5032 15.3825 55.2231C15.3825 54.9505 15.3825 54.7168 15.3435 54.561L15.7337 54.4442L15.7803 54.5144C15.914 54.7164 16.0227 54.8805 16.1629 54.9505C16.3189 55.0284 16.475 55.1063 16.7091 55.1842L17.1773 55.3399C17.6455 55.8462 17.9186 56.4304 18.0746 57.1314C18.2307 57.8324 18.1917 58.5335 17.9576 59.2345C17.7235 59.9744 17.4114 60.5976 16.9822 61.1039C16.553 61.6101 16.0458 61.9996 15.4996 62.3112C14.9534 62.6227 14.3681 62.7785 13.7048 62.8174C13.0806 62.8564 12.4173 62.7785 11.715 62.5448C11.0518 62.3501 10.4665 61.9996 9.9203 61.6101C9.37408 61.2207 8.94491 60.7144 8.63278 60.1692C8.32065 59.6239 8.12557 59.0008 8.04754 58.3387C7.96951 57.6767 8.04754 56.9756 8.28164 56.2746C8.55475 55.4568 8.98392 54.7558 9.53014 54.2105C10.1154 53.6653 10.7787 53.2758 11.52 53.0422L10.6226 51.017C9.64719 51.3286 8.78884 51.8738 8.04754 52.6916C7.30624 53.5095 6.76001 54.4831 6.40887 55.5736C6.05773 56.5862 5.94068 57.5598 6.01871 58.5335C6.09674 59.5071 6.33084 60.3639 6.76001 61.1817C7.18919 61.9607 7.77443 62.6617 8.51573 63.2848ZM85.3381 8.91702C85.4941 7.90444 85.8063 6.96975 86.3135 6.15189C86.7817 5.33404 87.4059 4.67197 88.1472 4.12673C88.8885 3.5815 89.7078 3.19204 90.6442 2.99732C91.5806 2.76364 92.595 2.76364 93.6485 2.91943C94.8189 3.11415 95.8333 3.50361 96.7307 4.08779C97.6281 4.67197 98.3304 5.45088 98.7595 6.38557L96.8868 7.59287C96.5356 6.89186 96.0674 6.26873 95.4042 5.80138C94.7799 5.33404 94.0386 5.02248 93.1803 4.90564C92.439 4.7888 91.7367 4.82775 91.1124 4.98353C90.4492 5.17826 89.9029 5.45088 89.3957 5.84033C88.8885 6.22978 88.4984 6.73607 88.1472 7.32025C87.8351 7.90444 87.601 8.56651 87.4839 9.26752C87.3669 9.96854 87.4059 10.6306 87.523 11.2927C87.679 11.9158 87.9131 12.5 88.3033 13.0063C88.6544 13.5126 89.1616 13.941 89.7078 14.2525C90.2931 14.603 90.9564 14.8367 91.6977 14.9536C92.439 15.0704 93.1022 14.9925 93.8045 14.7588C94.4678 14.5252 95.014 14.1357 95.4432 13.5905L95.5212 13.0842C95.5602 12.8505 95.5993 12.6558 95.6773 12.5C95.7553 12.3442 95.8724 12.1884 96.1455 11.9937L95.9504 11.6042C95.9102 11.6143 95.8649 11.6269 95.8151 11.6407C95.6713 11.6807 95.4899 11.7311 95.2871 11.76C95.014 11.799 94.7019 11.799 94.3898 11.76L92.0098 11.3706L92.3219 9.5012L98.1743 10.4359L97.0038 17.4461L95.053 17.1345L95.3261 15.4209L95.014 15.382C94.6239 15.9272 94.1166 16.3166 93.4534 16.5893C92.7901 16.8619 92.0098 16.9008 91.0344 16.745C90.059 16.5893 89.2006 16.2777 88.4203 15.8493C87.64 15.4209 87.0157 14.8367 86.5085 14.1746C86.0013 13.4736 85.6502 12.6947 85.4161 11.8379C85.182 10.9032 85.143 9.96854 85.3381 8.91702ZM119.282 12.1884L114.132 9.34543L107.538 21.3017L109.372 22.3142L111.011 19.3544L111.052 19.2793L111.052 19.2792C111.228 18.9645 111.367 18.7143 111.44 18.4976C111.557 18.2639 111.557 17.9913 111.479 17.7187L111.83 17.485C111.947 17.6408 112.142 17.7966 112.376 17.9524C112.459 18.0075 112.537 18.0627 112.61 18.1144C112.744 18.2087 112.861 18.2915 112.961 18.3418L114.132 19.0039L114.717 25.2741L116.98 26.5203L116.512 22.0027L116.505 21.9507L116.505 21.9506C116.468 21.6524 116.427 21.3234 116.317 21.029C116.2 20.6785 116.044 20.4059 115.81 20.1333L116.005 19.7828C116.512 19.9775 117.019 20.0944 117.526 20.0944C118.033 20.1333 118.502 20.0554 118.931 19.8996C119.36 19.7438 119.789 19.5102 120.14 19.1986C120.53 18.887 120.804 18.4976 121.077 18.0302C121.35 17.524 121.545 17.0177 121.623 16.4724C121.701 15.9272 121.662 15.382 121.545 14.8757C121.428 14.3304 121.194 13.8631 120.804 13.3957C120.413 12.9284 119.906 12.5389 119.282 12.1884ZM112.532 16.2777V15.8493C112.649 15.8104 112.805 15.7325 112.883 15.6156C113 15.4988 113.117 15.343 113.234 15.1872C113.293 15.0899 113.352 15.0023 113.41 14.9146L113.41 14.9146L113.41 14.9143C113.469 14.8268 113.527 14.7392 113.586 14.642C113.644 14.5447 113.693 14.4572 113.742 14.3696L113.742 14.3695L113.742 14.3694C113.79 14.2818 113.839 14.1941 113.898 14.0968C113.956 13.9998 114.005 13.9125 114.053 13.8252L114.053 13.825L114.053 13.825L114.053 13.8247L114.054 13.8246L114.054 13.8241L114.054 13.8237C114.103 13.7362 114.151 13.6487 114.21 13.5515C114.327 13.3568 114.405 13.201 114.483 13.0063C114.548 12.8758 114.586 12.718 114.62 12.5786L114.62 12.5782L114.63 12.5366L114.639 12.5C114.678 12.3442 114.678 12.1884 114.639 12.0327L114.99 11.799C115.107 11.9548 115.302 12.1105 115.536 12.2663C115.619 12.3215 115.697 12.3767 115.771 12.4284C115.904 12.5227 116.021 12.6055 116.122 12.6558L118.111 13.7463C118.814 14.1357 119.282 14.6031 119.438 15.1872C119.594 15.7714 119.516 16.3945 119.165 17.0177C118.814 17.6408 118.346 18.0692 117.76 18.225C117.175 18.3808 116.512 18.2639 115.81 17.8745L113.82 16.784C113.773 16.7606 113.722 16.7336 113.667 16.7041L113.667 16.7039L113.666 16.7037L113.666 16.7036C113.538 16.6354 113.386 16.5539 113.195 16.4724C112.982 16.366 112.769 16.3242 112.585 16.2882L112.532 16.2777ZM122.949 22.2753C123.652 21.4964 124.393 20.9123 125.212 20.5228C126.032 20.0944 126.89 19.8607 127.787 19.8218C128.646 19.7439 129.543 19.8997 130.401 20.1723C131.26 20.4839 132.079 20.9512 132.859 21.6522C133.64 22.3532 134.186 23.0932 134.615 23.911C135.005 24.7289 135.239 25.5857 135.278 26.4814C135.317 27.3772 135.2 28.234 134.888 29.0908C134.576 29.9476 134.069 30.7654 133.406 31.5443C132.742 32.2843 131.962 32.8685 131.143 33.2969C130.323 33.7253 129.465 33.959 128.568 33.9979C127.67 34.0368 126.812 33.92 125.954 33.6085C125.095 33.2969 124.276 32.8295 123.535 32.1675C122.793 31.5054 122.208 30.7654 121.818 29.9086C121.428 29.0908 121.194 28.234 121.155 27.3382C121.116 26.4425 121.233 25.5857 121.545 24.69C121.857 23.7942 122.286 23.0153 122.949 22.2753ZM124.549 23.7163C124.081 24.2616 123.691 24.8457 123.496 25.4689C123.262 26.092 123.144 26.7151 123.183 27.3382C123.183 27.9614 123.34 28.5456 123.613 29.1297C123.886 29.7139 124.276 30.2202 124.783 30.6875C125.29 31.1549 125.876 31.4665 126.461 31.7001C127.085 31.8949 127.67 31.9727 128.295 31.9338C128.919 31.8949 129.504 31.7001 130.089 31.4275C130.675 31.1159 131.221 30.7265 131.689 30.1813C132.157 29.636 132.547 29.0518 132.742 28.4287C132.976 27.8056 133.094 27.1825 133.055 26.5593C133.055 25.9362 132.898 25.352 132.625 24.7678C132.352 24.1837 131.962 23.6774 131.455 23.21C130.948 22.7427 130.362 22.4311 129.777 22.1975C129.153 22.0027 128.568 21.9248 127.943 21.9638C127.319 22.0027 126.734 22.1975 126.149 22.4701C125.602 22.7427 125.056 23.1711 124.549 23.7163ZM146.554 38.2819C146.359 37.7756 146.125 37.3082 145.774 36.8019L142.184 31.5443L130.909 39.2555L134.771 44.8636C135.122 45.3699 135.513 45.7983 135.981 46.1099C136.449 46.4214 136.917 46.6551 137.385 46.772C137.853 46.8888 138.361 46.9277 138.868 46.8109C139.375 46.733 139.882 46.4993 140.351 46.1878C140.78 45.9152 141.092 45.5646 141.326 45.2141C141.56 44.8636 141.677 44.5131 141.755 44.1237C141.833 43.7732 141.794 43.3837 141.716 42.9942C141.638 42.6048 141.482 42.2153 141.248 41.8648L141.56 41.6701C142.184 42.1764 142.809 42.488 143.433 42.6048C144.096 42.7216 144.759 42.5269 145.462 42.0596C145.93 41.748 146.242 41.3585 146.476 40.9691C146.71 40.5796 146.827 40.1512 146.827 39.6839C146.827 39.2555 146.749 38.7881 146.554 38.2819ZM133.484 39.6449L133.796 39.4502C134.108 39.5281 134.381 39.4502 134.615 39.2165L134.69 39.1742C134.951 39.0256 135.274 38.8419 135.63 38.5934L135.72 38.5259L135.818 38.4532L135.936 38.366L135.939 38.3643L135.943 38.3612L135.945 38.3596C136.126 38.2266 136.284 38.1098 136.41 38.0092C136.605 37.8535 136.722 37.6198 136.8 37.3472L137.229 37.3082C137.268 37.5029 137.346 37.7366 137.502 37.9703C137.658 38.2429 137.775 38.4376 137.892 38.5934L139.531 40.9691C140.038 41.709 140.233 42.3711 140.155 42.9553C140.077 43.5005 139.765 43.9679 139.258 44.3184C138.751 44.6689 138.244 44.7857 137.658 44.6689C137.073 44.5521 136.605 44.1626 136.137 43.5005L133.484 39.6449ZM138.439 36.5683L138.634 36.1788C138.907 36.2177 139.18 36.1788 139.336 36.023C139.521 35.9307 139.73 35.7897 139.983 35.6193L139.984 35.6189L139.984 35.6188L139.984 35.6187L139.984 35.6186L139.986 35.6179L139.99 35.6151L139.991 35.6145C140.056 35.5707 140.123 35.525 140.194 35.4778C140.546 35.2441 140.819 35.0494 141.014 34.8936C141.209 34.6989 141.326 34.4652 141.404 34.1926L141.833 34.1536C141.872 34.3484 141.95 34.582 142.106 34.8157C142.262 35.0883 142.379 35.2831 142.496 35.4388L144.057 37.6977C144.447 38.2819 144.642 38.8271 144.642 39.3334C144.642 39.8397 144.369 40.307 143.823 40.6575C143.316 41.008 142.809 41.1249 142.301 40.9691C141.794 40.8133 141.287 40.3849 140.819 39.6839L139.375 37.5808C139.258 37.4251 139.141 37.2693 138.946 37.0356C138.79 36.8409 138.595 36.6851 138.439 36.5683ZM143.589 49.3813L151.431 46.3436L152.211 48.3298L144.447 51.3675C143.394 51.7959 142.691 52.419 142.379 53.2369C142.067 54.0547 142.106 54.9894 142.496 56.002C142.887 57.0146 143.472 57.7156 144.291 58.1051C145.071 58.4945 146.008 58.4945 147.1 58.0661L154.864 55.0284L155.645 57.0146L147.803 60.0523C147.022 60.3639 146.281 60.5197 145.54 60.5197C144.798 60.5197 144.135 60.4028 143.511 60.0913C142.887 59.8187 142.34 59.3903 141.833 58.8061C141.326 58.2219 140.936 57.5598 140.585 56.703C140.272 55.8852 140.077 55.0673 140.077 54.3274C140.077 53.5874 140.194 52.8864 140.468 52.2632C140.741 51.6401 141.131 51.0949 141.677 50.5886C142.145 50.0823 142.808 49.6929 143.589 49.3813ZM147.529 65.4268L145.579 64.4532C145.466 64.5653 145.361 64.6906 145.251 64.821L145.25 64.8211C145.093 65.0076 144.927 65.2045 144.72 65.3879C144.525 65.8163 144.33 66.2447 144.213 66.751C144.096 67.2573 144.018 67.7635 143.979 68.3477C143.94 68.9319 143.979 69.5161 144.057 70.1392C144.174 70.9181 144.408 71.5802 144.681 72.2033C144.993 72.8264 145.344 73.3327 145.774 73.7222C146.203 74.1116 146.71 74.3843 147.256 74.579C147.803 74.7348 148.388 74.7737 149.012 74.6958C149.675 74.6179 150.182 74.3843 150.573 74.0727C150.963 73.7611 151.275 73.3717 151.47 72.9043C151.665 72.437 151.821 71.9307 151.899 71.3855C151.977 70.8402 152.055 70.295 152.094 69.7498C152.133 69.2824 152.172 68.8151 152.211 68.3867C152.23 68.2726 152.247 68.1632 152.263 68.0578L152.263 68.0577L152.263 68.0575C152.313 67.7313 152.357 67.4442 152.445 67.1794C152.562 66.8288 152.719 66.5173 152.914 66.2836C153.148 66.0499 153.421 65.8942 153.772 65.8552C154.318 65.7773 154.864 65.9721 155.294 66.4394C155.762 66.9067 156.035 67.6467 156.191 68.5814C156.269 69.0877 156.269 69.555 156.23 69.9445C156.191 70.3339 156.074 70.6844 155.957 70.9571C155.84 71.2297 155.684 71.5023 155.528 71.697C155.372 71.8917 155.216 72.0475 155.06 72.2032L155.059 72.2033L156.815 73.4106C157.4 72.8264 157.83 72.0865 158.064 71.1907C158.298 70.295 158.337 69.3214 158.181 68.2698C158.064 67.5299 157.869 66.8678 157.595 66.2836C157.322 65.6994 156.971 65.1931 156.542 64.8037C156.113 64.4142 155.645 64.1416 155.098 63.9469C154.552 63.7911 153.967 63.7522 153.343 63.8301C152.64 63.9469 152.055 64.1806 151.665 64.57C151.275 64.9205 150.963 65.3879 150.768 65.9331C150.573 66.4783 150.456 67.0625 150.378 67.6856C150.304 68.2698 150.266 68.8539 150.229 69.406L150.221 69.5161C150.182 69.9445 150.143 70.3339 150.104 70.6844C150.065 71.035 149.987 71.3855 149.87 71.6581C149.753 71.9307 149.597 72.1644 149.402 72.3591C149.207 72.5538 148.934 72.6707 148.622 72.7096C148.349 72.7486 148.076 72.7096 147.842 72.6317C147.607 72.5538 147.373 72.398 147.139 72.1644C146.905 71.9696 146.71 71.6581 146.554 71.3076C146.398 70.9571 146.281 70.5287 146.203 70.0224C146.125 69.4382 146.125 68.9319 146.164 68.4646C146.242 67.9972 146.32 67.5688 146.476 67.1794C146.632 66.7899 146.788 66.4783 146.983 66.1668C147.041 66.0853 147.096 66.0038 147.15 65.9244L147.15 65.9242C147.275 65.738 147.393 65.5633 147.529 65.4268ZM156.971 78.2399L159 78.3567L158.415 89.6119L156.386 89.4951L156.503 86.8468C156.542 86.4184 156.62 86.029 156.737 85.7953C156.822 85.6259 156.927 85.4565 157.023 85.302L157.024 85.3018C157.06 85.2432 157.095 85.1867 157.127 85.1332L156.854 84.7438C156.776 84.7827 156.659 84.8217 156.503 84.8217C156.425 84.8217 156.347 84.8314 156.269 84.8411C156.191 84.8509 156.113 84.8606 156.035 84.8606H155.567H155.216L144.954 84.3543L145.071 82.2513L155.333 82.7575C155.411 82.7575 155.528 82.7575 155.684 82.7965C155.757 82.7965 155.822 82.8052 155.891 82.8143C155.968 82.8246 156.049 82.8354 156.152 82.8354C156.225 82.8537 156.298 82.8634 156.367 82.8726C156.446 82.8829 156.519 82.8926 156.581 82.9133C156.685 82.9393 156.755 82.9652 156.824 82.9912C156.859 83.0042 156.893 83.0172 156.932 83.0302L157.244 82.6797C157.127 82.485 157.01 82.2126 156.893 81.9402L156.893 81.9397C156.815 81.6671 156.776 81.2776 156.776 80.8492L156.971 78.2399ZM156.854 97.7515L157.439 95.7263L144.291 92.0265L143.706 94.0517L147.92 95.259C147.955 95.2677 147.994 95.2784 148.037 95.2902C148.185 95.331 148.38 95.3846 148.622 95.4148L148.732 95.4288C148.99 95.462 149.192 95.4879 149.363 95.4537L149.519 95.8432C149.441 95.96 149.363 96.0379 149.324 96.0768C149.285 96.1158 149.207 96.2326 149.168 96.3495C149.15 96.4233 149.122 96.4972 149.09 96.5835L149.09 96.5839C149.055 96.6795 149.014 96.7905 148.973 96.9336C148.856 97.1673 148.739 97.5568 148.622 98.0241L147.998 100.244C147.896 100.573 147.828 100.836 147.771 101.054L147.771 101.055L147.77 101.056C147.74 101.174 147.713 101.278 147.685 101.373C147.646 101.646 147.607 101.841 147.568 101.997V102.308C147.568 102.343 147.576 102.386 147.585 102.433C147.596 102.491 147.607 102.555 147.607 102.62L147.256 102.892C147.1 102.775 146.866 102.659 146.593 102.542C146.32 102.425 146.086 102.347 145.93 102.308L141.716 101.101L141.131 103.126L154.279 106.826L154.864 104.801L150.534 103.593C150.499 103.585 150.46 103.574 150.417 103.562C150.268 103.521 150.073 103.468 149.831 103.438L149.721 103.424C149.463 103.39 149.262 103.364 149.09 103.399L148.934 103.009C149.012 102.892 149.09 102.814 149.129 102.775C149.168 102.736 149.246 102.659 149.285 102.503C149.304 102.429 149.331 102.355 149.363 102.268C149.398 102.173 149.439 102.062 149.48 101.919C149.597 101.685 149.714 101.296 149.831 100.828L150.456 98.6083C150.557 98.2795 150.625 98.0164 150.682 97.7977C150.713 97.6796 150.74 97.5744 150.768 97.4789C150.787 97.3474 150.814 97.225 150.838 97.1203C150.864 97.008 150.885 96.9162 150.885 96.8557V96.5442C150.885 96.5092 150.877 96.4663 150.868 96.4191C150.858 96.3612 150.846 96.2969 150.846 96.2326L151.197 95.96C151.353 96.0768 151.587 96.1937 151.86 96.3105C152.133 96.4273 152.367 96.5052 152.523 96.5442L156.854 97.7515ZM146.866 121.664L145.11 120.69L148.076 115.277C148.154 115.121 148.271 114.926 148.466 114.693C148.622 114.459 148.778 114.264 148.934 114.147L148.7 113.797C148.544 113.836 148.427 113.836 148.31 113.836C148.251 113.836 148.193 113.826 148.134 113.816L148.134 113.816C148.076 113.807 148.017 113.797 147.959 113.797L147.958 113.797C147.841 113.758 147.724 113.719 147.568 113.641L147.568 113.641C147.412 113.563 147.256 113.485 147.061 113.369C146.778 113.227 146.556 113.086 146.381 112.974L146.306 112.926L146.253 112.893L146.226 112.877L146.203 112.862C146.008 112.745 145.891 112.512 145.774 112.239H145.345C145.345 112.434 145.266 112.668 145.149 112.94C145.068 113.13 144.986 113.282 144.918 113.41L144.918 113.41L144.918 113.41L144.916 113.414C144.902 113.439 144.89 113.463 144.877 113.486C144.863 113.513 144.85 113.538 144.837 113.563L142.223 118.276L140.468 117.302L143.082 112.59C143.16 112.434 143.277 112.239 143.472 112.005C143.628 111.772 143.784 111.577 143.94 111.46L143.706 111.11C143.433 111.188 143.16 111.149 142.887 111.071C142.613 110.954 142.301 110.798 141.911 110.564C141.781 110.487 141.66 110.417 141.548 110.354C141.326 110.227 141.144 110.123 141.014 110.019C140.819 109.863 140.663 109.669 140.546 109.357H140.116C140.116 109.552 140.038 109.786 139.921 110.058C139.84 110.248 139.758 110.4 139.69 110.528C139.66 110.583 139.633 110.634 139.609 110.681L136.566 116.251L134.81 115.277L139.492 106.787L151.47 113.33L146.866 121.664ZM143.901 126.065L142.379 124.741L140.702 126.805C140.429 127.155 140.233 127.467 140.116 127.739C140.008 127.991 139.967 128.243 139.93 128.464L139.921 128.518L139.453 128.596C139.426 128.514 139.379 128.451 139.327 128.381L139.301 128.345L139.28 128.317L139.276 128.311C139.27 128.303 139.264 128.294 139.258 128.285C139.18 128.168 139.063 128.051 138.946 127.934C138.934 127.922 138.922 127.91 138.911 127.898L138.89 127.875C138.871 127.855 138.853 127.834 138.835 127.814C138.77 127.741 138.71 127.673 138.634 127.623L138.634 127.622L138.633 127.622L138.633 127.622C138.516 127.505 138.439 127.428 138.361 127.389L130.518 120.729L129.153 122.326L136.995 128.986C137.073 129.064 137.151 129.141 137.268 129.219C137.327 129.258 137.385 129.307 137.444 129.356C137.502 129.404 137.561 129.453 137.619 129.492C137.775 129.57 137.892 129.648 138.01 129.726C138.091 129.78 138.173 129.815 138.241 129.845C138.271 129.858 138.298 129.87 138.322 129.881V130.349C138.17 130.379 137.995 130.456 137.796 130.544L137.795 130.545L137.795 130.545L137.795 130.545L137.792 130.546C137.737 130.57 137.679 130.596 137.619 130.621C137.346 130.738 137.073 130.972 136.8 131.322L135.083 133.348L136.605 134.672L143.901 126.065ZM119.321 131.673L126.578 143.201L124.783 144.33L122.325 140.397C122.169 140.163 122.013 139.851 121.857 139.54C121.701 139.228 121.545 138.878 121.428 138.488L120.921 138.605V139.657C120.921 140.046 120.882 140.553 120.765 141.137L119.594 147.602L117.331 149.043L118.463 142.928C118.474 142.875 118.485 142.822 118.496 142.77C118.502 142.739 118.508 142.708 118.513 142.677L118.532 142.579L118.532 142.579L118.532 142.579L118.532 142.579L118.532 142.578L118.532 142.578L118.532 142.578L118.532 142.578L118.532 142.578C118.575 142.344 118.619 142.11 118.697 141.877C118.736 141.76 118.77 141.643 118.805 141.526C118.874 141.292 118.944 141.059 119.048 140.825L118.814 140.475C118.58 140.552 118.268 140.63 117.877 140.63C117.526 140.63 117.175 140.591 116.902 140.475L109.684 137.748L111.947 136.346L119.243 139.112L119.828 136.385L117.565 132.802L119.321 131.673ZM107.85 153.015L108.084 138.488L105.899 139.267L105.86 141.838C105.86 141.955 105.899 142.11 105.938 142.227C105.977 142.344 106.056 142.461 106.173 142.578L106.017 142.967C105.821 142.967 105.587 142.967 105.392 143.045C105.301 143.081 105.184 143.118 105.041 143.162L105.041 143.163L105.04 143.163C104.878 143.213 104.683 143.274 104.456 143.357L101.92 144.252C101.491 144.408 101.179 144.525 100.983 144.603C100.788 144.681 100.593 144.798 100.437 144.914L100.086 144.72C100.125 144.564 100.086 144.408 100.047 144.291C100.008 144.174 99.93 144.058 99.852 143.941L98.2133 141.955L96.1065 142.695L105.353 153.911L107.85 153.015ZM105.236 144.992C105.431 144.914 105.587 144.798 105.743 144.681L106.095 144.953C106.056 145.07 106.017 145.187 105.977 145.382C105.938 145.538 105.899 145.732 105.899 145.927L105.86 148.147C105.824 148.585 105.856 149.091 105.892 149.666L105.899 149.783C105.938 150.406 106.056 151.107 106.251 151.886L105.821 152.041C105.509 151.301 105.158 150.678 104.807 150.172C104.763 150.108 104.719 150.045 104.676 149.983L104.671 149.976L104.671 149.976C104.374 149.546 104.103 149.153 103.832 148.848L102.427 147.134C102.31 146.978 102.193 146.862 102.037 146.745C101.995 146.714 101.956 146.685 101.92 146.659L101.92 146.659C101.821 146.586 101.743 146.529 101.686 146.472L101.803 146.083C101.998 146.083 102.193 146.044 102.388 146.005C102.533 145.976 102.677 145.926 102.838 145.87L102.838 145.87L102.838 145.87L102.899 145.849C102.936 145.836 102.974 145.823 103.012 145.81L104.651 145.226C104.885 145.148 105.08 145.07 105.236 144.992ZM92.478 157.065L85.6112 149.237C85.4161 149.004 85.221 148.731 85.026 148.38C84.8309 148.03 84.6358 147.679 84.4797 147.368L83.9725 147.563C84.0245 147.692 84.0765 147.874 84.1401 148.096L84.1401 148.096L84.1405 148.098L84.1409 148.099L84.177 148.225L84.2006 148.306C84.2149 148.355 84.2299 148.406 84.2456 148.458C84.3627 148.848 84.4407 149.393 84.4797 150.016L85.2991 157.766L83.1922 158L81.7876 144.447L83.9725 144.213L90.8393 152.041C91.0344 152.275 91.2295 152.548 91.4246 152.898C91.4762 152.991 91.5279 153.081 91.5788 153.17L91.58 153.172L91.5801 153.172C91.7211 153.418 91.8564 153.654 91.9708 153.911L92.478 153.716C92.426 153.586 92.3739 153.404 92.3104 153.182C92.2786 153.071 92.2439 152.95 92.2049 152.82C92.0878 152.431 92.0098 151.886 91.9708 151.262L91.1515 143.473L93.2583 143.24L94.6629 156.793L92.478 157.065ZM67.9369 146.394L65.713 156.403L67.7028 156.91L70.668 143.59L61.9675 141.643L61.5383 143.629L66.2983 144.681C66.7664 144.759 67.1176 144.797 67.4297 144.759C67.7419 144.72 68.015 144.642 68.21 144.564L68.5222 144.914C68.4357 145.029 68.3705 145.166 68.2952 145.323L68.2705 145.375L68.2565 145.404L68.2349 145.448L68.21 145.498C68.093 145.732 68.015 146.044 67.9369 146.394ZM48.6241 150.99L39.1432 146.433L40.0406 144.603L45.5809 147.29C45.6946 147.347 45.829 147.424 45.9992 147.522L46.0011 147.523L46.0016 147.524C46.0644 147.56 46.1319 147.599 46.2051 147.64C46.4392 147.796 46.6343 147.952 46.7513 148.069L47.1025 147.835C47.0943 147.803 47.0862 147.772 47.0784 147.742C47.0489 147.631 47.0244 147.538 47.0244 147.446C47.0244 147.329 47.0244 147.212 47.0635 147.095C47.1025 146.978 47.1415 146.862 47.2195 146.706L47.2197 146.706C47.2976 146.55 47.3756 146.394 47.4536 146.2C47.6487 145.81 47.8048 145.499 47.9218 145.343C48.0389 145.148 48.2339 144.992 48.507 144.914L48.468 144.486C48.3015 144.486 48.1066 144.429 47.8832 144.364L47.883 144.364L47.8821 144.364L47.879 144.363L47.8356 144.35L47.7657 144.33C47.5856 144.279 47.4395 144.21 47.3048 144.148C47.2353 144.115 47.1689 144.084 47.1025 144.058L42.2255 141.721L43.1228 139.89L47.9998 142.227C48.1141 142.284 48.2492 142.362 48.4205 142.461L48.5073 142.511L48.6241 142.578C48.8582 142.733 49.0533 142.889 49.1703 143.006L49.5215 142.772C49.4434 142.5 49.4434 142.227 49.5215 141.954C49.5839 141.736 49.6963 141.493 49.8386 141.186L49.8392 141.184L49.8395 141.183L49.8858 141.083C49.9069 141.038 49.9285 140.99 49.9506 140.942L49.9507 140.942C50.1458 140.552 50.3018 140.241 50.4578 140.007C50.5749 139.774 50.809 139.618 51.0821 139.501L51.0431 139.073C50.8765 139.073 50.6814 139.016 50.4579 138.951L50.4572 138.95C50.4192 138.939 50.3804 138.928 50.3408 138.917C50.0677 138.8 49.8726 138.722 49.6775 138.644L43.9422 135.879L44.8396 134.049L53.5791 138.255L52.7988 139.89C52.7864 139.915 52.7741 139.941 52.7615 139.967L52.7403 140.013L52.7237 140.048L52.7234 140.049C52.6674 140.169 52.6057 140.303 52.5257 140.436C52.4086 140.63 52.2526 140.786 52.0185 140.942L52.0575 141.37C52.2526 141.37 52.4867 141.409 52.7208 141.526C52.9549 141.604 53.1499 141.682 53.306 141.76L54.5155 142.344C54.9057 142.539 55.2568 142.733 55.5299 142.928C55.803 143.123 55.9981 143.318 56.1152 143.473L56.4663 143.395C56.5443 143.201 56.7004 143.006 56.9345 142.811C57.1296 142.617 57.4027 142.422 57.7148 142.227L59.3925 141.059L61.4993 142.071L48.6241 150.99ZM54.6716 144.564V144.174L54.6704 144.174C54.4757 144.135 54.2811 144.096 54.1253 144.058C53.9693 143.98 53.7742 143.902 53.5401 143.824L52.6037 143.357C52.4477 143.279 52.2526 143.162 52.0575 143.045C51.8624 142.928 51.6673 142.772 51.5503 142.617L51.2382 142.772C51.2772 143.045 51.2382 143.318 51.1211 143.59C51.0626 143.726 50.9846 143.882 50.8968 144.057L50.8966 144.058L50.8963 144.058L50.8962 144.059L50.896 144.059C50.8084 144.234 50.7111 144.428 50.6139 144.642L48.6241 148.77L48.9752 148.926C49.2874 148.575 49.5995 148.225 49.9506 147.913C50.034 147.839 50.1151 147.765 50.1951 147.692L50.1964 147.691C50.453 147.457 50.6977 147.234 50.965 147.056L53.5401 145.148C53.8132 144.953 54.0473 144.797 54.2424 144.72C54.3984 144.642 54.5155 144.603 54.6716 144.564ZM28.882 138.138L33.3299 141.993L42.3035 131.751L40.7039 130.349L38.48 132.88C38.2896 133.097 38.1371 133.296 38.0093 133.462L38.0091 133.462L38.0078 133.464C37.9529 133.535 37.9025 133.601 37.8557 133.659C37.6996 133.854 37.6606 134.088 37.6606 134.399L37.2705 134.555C37.1924 134.36 37.0364 134.165 36.8413 133.971C36.6462 133.737 36.4901 133.581 36.3341 133.464L35.3197 132.569L36.061 126.298L34.1102 124.624L33.603 129.141C33.5639 129.492 33.5639 129.804 33.603 130.154C33.642 130.505 33.72 130.816 33.9151 131.128L33.681 131.4C33.2128 131.089 32.7446 130.894 32.2764 130.777C31.8082 130.66 31.34 130.621 30.8718 130.699C30.4037 130.738 29.9745 130.894 29.5453 131.128C29.1161 131.361 28.726 131.673 28.3748 132.062C28.0237 132.491 27.7116 132.958 27.5165 133.464C27.3214 133.971 27.2434 134.477 27.2434 135.022C27.2434 135.567 27.3994 136.074 27.6725 136.619C27.9457 137.164 28.3358 137.67 28.882 138.138ZM36.3341 135.529L36.256 135.957C36.1 135.996 35.9829 136.035 35.7488 136.152C35.6318 136.23 35.4757 136.346 35.3197 136.463C35.2172 136.54 35.1315 136.633 35.0406 136.733L35.0405 136.733C34.993 136.785 34.944 136.838 34.8905 136.892C34.7344 137.047 34.5784 137.203 34.4613 137.359C34.3834 137.437 34.3152 137.514 34.2471 137.592L34.2467 137.593C34.1784 137.67 34.1102 137.748 34.0321 137.826L33.681 138.294C33.5639 138.449 33.4859 138.605 33.4079 138.761C33.3689 138.917 33.3299 139.073 33.3299 139.228L32.9397 139.384C32.8617 139.189 32.7056 138.995 32.5105 138.8C32.3154 138.566 32.1594 138.41 32.0033 138.294L30.2866 136.775C29.7014 136.268 29.3502 135.684 29.3112 135.1C29.2722 134.516 29.5063 133.932 29.9745 133.387C30.4817 132.841 30.9889 132.53 31.6132 132.491C32.2374 132.452 32.8226 132.685 33.4469 133.231L35.1636 134.75C35.2806 134.866 35.4757 135.022 35.7098 135.178C35.9439 135.373 36.139 135.451 36.3341 135.529ZM15.3825 122.754L16.9821 121.547L20.6886 126.493C20.7642 126.594 20.8398 126.711 20.9259 126.844C20.9731 126.917 21.0235 126.995 21.0788 127.077C21.2095 127.273 21.2855 127.469 21.3526 127.642C21.3656 127.675 21.3783 127.708 21.3909 127.739L21.8201 127.7C21.8591 127.545 21.8981 127.428 21.9371 127.311C21.9762 127.194 22.0542 127.116 22.1322 127.038C22.2103 126.961 22.3273 126.844 22.4444 126.766C22.5614 126.688 22.7175 126.571 22.9125 126.415C23.2637 126.143 23.5368 125.948 23.7319 125.87C23.927 125.753 24.1611 125.714 24.4732 125.753L24.6292 125.364C24.4732 125.286 24.2782 125.091 24.0832 124.897L24.0831 124.896L24.083 124.896C23.9975 124.794 23.9195 124.706 23.8489 124.627C23.7586 124.526 23.6806 124.439 23.6148 124.351L20.3765 120.028L21.9762 118.821L25.2145 123.144C25.2901 123.244 25.3656 123.361 25.4517 123.494L25.4519 123.495C25.499 123.567 25.5494 123.645 25.6046 123.728C25.7354 123.924 25.8114 124.12 25.8784 124.292C25.8914 124.326 25.9041 124.359 25.9168 124.39L26.3459 124.351C26.385 124.04 26.541 123.806 26.7361 123.65C26.9027 123.484 27.1546 123.289 27.4432 123.066L27.4435 123.066L27.4436 123.066L27.5945 122.949C27.9456 122.677 28.2577 122.482 28.4528 122.365C28.6869 122.248 28.921 122.17 29.2331 122.209L29.3892 121.82C29.2332 121.742 29.0381 121.547 28.8431 121.353L28.843 121.352L28.843 121.352C28.7574 121.25 28.6794 121.162 28.6089 121.083L28.6088 121.083L28.6087 121.083C28.5184 120.982 28.4405 120.895 28.3748 120.807L24.5512 115.705L26.1509 114.498L31.9642 122.248L21.0398 130.427L15.3825 122.754ZM20.7668 112.551L22.9126 112.94C23.1077 112.59 23.2248 112.2 23.3028 111.733C23.3808 111.266 23.4198 110.798 23.4198 110.292C23.4198 109.786 23.3418 109.24 23.2248 108.695C23.1077 108.15 22.9126 107.566 22.6395 107.021C22.2884 106.319 21.8982 105.735 21.469 105.229C21.0399 104.723 20.5327 104.333 20.0254 104.061C19.5182 103.788 18.972 103.671 18.3868 103.632C17.8406 103.632 17.2553 103.749 16.6701 104.022C16.0458 104.294 15.6167 104.645 15.3435 105.073C15.0704 105.463 14.9144 105.93 14.8363 106.436C14.7583 106.904 14.7583 107.449 14.8363 107.994C14.9144 108.539 14.9924 109.085 15.1094 109.63C15.1485 109.844 15.1972 110.068 15.246 110.292L15.246 110.292C15.2948 110.516 15.3435 110.74 15.3826 110.954C15.4606 111.382 15.4996 111.772 15.4996 112.161C15.4996 112.512 15.4216 112.862 15.3045 113.135C15.1485 113.446 14.9144 113.641 14.6022 113.797C14.056 114.031 13.5098 113.992 12.9636 113.68C12.4173 113.369 11.9101 112.745 11.52 111.889C11.2859 111.421 11.1688 110.993 11.0908 110.603C11.0128 110.214 11.0128 109.864 11.0518 109.552C11.0908 109.24 11.1688 108.929 11.2469 108.695C11.3249 108.462 11.4419 108.267 11.5589 108.072L11.559 108.072L9.53017 107.41C9.14001 108.15 8.94493 108.968 8.98395 109.902C8.98395 110.837 9.21804 111.772 9.68623 112.745C9.99836 113.446 10.3885 114.031 10.8177 114.498C11.2859 114.965 11.7541 115.355 12.2613 115.627C12.7685 115.9 13.3147 116.056 13.9 116.056C14.4462 116.056 15.0314 115.939 15.6167 115.666C16.2799 115.394 16.7481 114.965 17.0212 114.498C17.2943 114.031 17.4504 113.524 17.4894 112.94C17.5284 112.356 17.4894 111.772 17.3724 111.149C17.2554 110.526 17.1384 109.942 17.0214 109.358L17.0214 109.358L17.0213 109.358L17.0213 109.358L17.0213 109.358L17.0212 109.357C16.9042 108.968 16.8261 108.578 16.7871 108.228C16.7091 107.838 16.7091 107.527 16.7481 107.215C16.7871 106.904 16.8652 106.631 17.0212 106.397C17.1383 106.164 17.3724 105.969 17.6455 105.852C17.9186 105.735 18.1527 105.696 18.4258 105.696C18.6989 105.696 18.972 105.774 19.2451 105.93C19.5182 106.086 19.7523 106.281 20.0254 106.592C20.2595 106.865 20.4936 107.254 20.7277 107.722C20.9618 108.228 21.1179 108.734 21.1959 109.201C21.274 109.669 21.313 110.097 21.274 110.526C21.2349 110.954 21.1959 111.304 21.0789 111.655C21.0008 112.006 20.8838 112.317 20.7668 112.551ZM2.03027 85.0555C2.03027 80.8233 5.4496 77.4121 9.68609 77.4121C13.9226 77.4121 17.3419 80.8233 17.3419 85.0555C17.3419 89.2528 13.92 92.6557 9.69373 92.6987L9.68609 92.6988C5.4496 92.6988 2.03027 89.2876 2.03027 85.0555ZM9.68609 78.9121C6.27546 78.9121 3.53027 81.6543 3.53027 85.0555C3.53027 88.4553 6.27338 91.1967 9.6822 91.1988C13.1013 91.162 15.8419 88.4123 15.8419 85.0555C15.8419 81.6543 13.0967 78.9121 9.68609 78.9121ZM9.2 87.6413C9.2 87.0546 8.68667 86.5413 8.1 86.5413C7.44 86.5413 7 87.0546 7 87.6413C7 88.2279 7.51333 88.7413 8.1 88.7413C8.68667 88.7413 9.2 88.2279 9.2 87.6413ZM8.1 81.5415C8.68667 81.5415 9.2 82.0548 9.2 82.6415C9.2 83.2282 8.68667 83.7415 8.1 83.7415C7.51333 83.7415 7 83.2282 7 82.6415C7 81.9815 7.44 81.5415 8.1 81.5415ZM11.4441 81.4176C11.0911 81.2008 10.6293 81.3111 10.4125 81.6641C10.1956 82.017 10.306 82.4789 10.659 82.6957C11.092 82.9617 11.4479 83.303 11.6399 83.659C11.6468 83.6717 11.654 83.6842 11.6616 83.6965C11.8927 84.0714 12.0182 84.5551 12.0182 85.0165C12.0182 85.4779 11.8927 85.9616 11.6616 86.3365C11.3953 86.7685 11.0534 87.1239 10.6964 87.3157C10.3316 87.5118 10.1948 87.9666 10.3909 88.3314C10.587 88.6963 11.0417 88.8331 11.4066 88.637C12.064 88.2836 12.5805 87.7043 12.9384 87.1237C13.3316 86.486 13.5182 85.7235 13.5182 85.0165C13.5182 84.3163 13.3351 83.5616 12.9497 82.9276C12.5946 82.2802 12.0198 81.7712 11.4441 81.4176Z" fill="#FFD526"/>
</svg>