<svg xmlns="http://www.w3.org/2000/svg" width="151" height="151" viewBox="0 0 151 151" fill="none">
<circle cx="75.414" cy="75.414" r="75.414" fill="#FFD526"/>
<mask id="path-2-outside-1_1405_3450" maskUnits="userSpaceOnUse" x="36" y="63.6987" width="78" height="27" fill="black">
<rect fill="white" x="36" y="63.6987" width="78" height="27"/>
<path d="M37 64.6987H39.9979V71.2752C39.9979 71.5386 39.9707 71.8962 39.9161 72.3478C39.8798 72.7805 39.8071 73.1287 39.6981 73.3921L40.1887 73.7872C40.3522 73.712 40.4794 73.6461 40.5702 73.5897C40.6611 73.5332 40.8064 73.4956 41.0063 73.4768C41.2062 73.4391 41.4969 73.4109 41.8784 73.3921C42.26 73.3733 42.805 73.3639 43.5136 73.3639H46.8113C47.5199 73.3639 48.065 73.3733 48.4466 73.3921C48.8281 73.4109 49.1188 73.4391 49.3187 73.4768C49.5185 73.4956 49.6639 73.5332 49.7547 73.5897C49.8456 73.6461 49.9728 73.712 50.1363 73.7872L50.6269 73.3921C50.5179 73.1287 50.4361 72.7805 50.3816 72.3478C50.3452 71.8962 50.3271 71.5386 50.3271 71.2752V64.6987H53.325V84.7386H50.3271V78.3315C50.3271 78.0681 50.3452 77.72 50.3816 77.2872C50.4361 76.8356 50.5179 76.478 50.6269 76.2146L50.1363 75.8195C49.9728 75.8947 49.8456 75.9606 49.7547 76.017C49.6639 76.0735 49.5185 76.1205 49.3187 76.1582C49.1188 76.177 48.8281 76.1958 48.4466 76.2146C48.065 76.2334 47.5199 76.2428 46.8113 76.2428H43.5136C42.805 76.2428 42.26 76.2334 41.8784 76.2146C41.4969 76.1958 41.2062 76.177 41.0063 76.1582C40.8064 76.1205 40.6611 76.0735 40.5702 76.017C40.4794 75.9606 40.3522 75.8947 40.1887 75.8195L39.6981 76.2146C39.8071 76.478 39.8798 76.8356 39.9161 77.2872C39.9707 77.72 39.9979 78.0681 39.9979 78.3315V84.7386H37V64.6987Z"/>
<path d="M55.6707 80.8718C55.6707 80.2132 55.7797 79.6299 55.9978 79.1218C56.234 78.5949 56.561 78.1527 56.9789 77.7952C57.3968 77.4189 57.8964 77.1366 58.4779 76.9485C59.0593 76.7603 59.6952 76.6662 60.3856 76.6662C61.2941 76.6662 62.0208 76.8356 62.5659 77.1743C63.1292 77.4942 63.6197 78.0022 64.0376 78.6984L64.4464 78.6702V77.1178C64.4464 76.3463 64.3556 75.716 64.1739 75.2267C64.0104 74.7375 63.7742 74.3612 63.4653 74.0977C63.1746 73.8343 62.8203 73.6555 62.4024 73.5614C61.9845 73.4674 61.5303 73.4203 61.0397 73.4203C60.531 73.4203 60.0949 73.4862 59.7315 73.6179C59.3681 73.7496 59.0593 73.919 58.8049 74.1259C58.5687 74.3141 58.3779 74.5117 58.2326 74.7187C58.0872 74.9068 57.9873 75.0762 57.9328 75.2267L55.7525 73.505C55.9523 73.0534 56.2431 72.6582 56.6246 72.3195C57.0062 71.962 57.4422 71.6704 57.9328 71.4445C58.4233 71.1999 58.9503 71.0212 59.5135 70.9083C60.0949 70.7954 60.6763 70.7389 61.2577 70.7389C63.111 70.7389 64.5827 71.2564 65.6728 72.2913C66.763 73.3074 67.3081 74.7751 67.3081 76.6944V84.7386H64.6645V82.8475L64.0649 82.7911C63.9922 83.0733 63.8559 83.3556 63.6561 83.6378C63.4562 83.9013 63.1928 84.1459 62.8657 84.3717C62.5387 84.5787 62.148 84.748 61.6938 84.8797C61.2577 85.0115 60.7581 85.0773 60.1948 85.0773C59.5589 85.0773 58.9593 84.9832 58.3961 84.7951C57.851 84.6069 57.3695 84.3341 56.9516 83.9765C56.5519 83.6002 56.234 83.158 55.9978 82.65C55.7797 82.1231 55.6707 81.5304 55.6707 80.8718ZM58.5051 80.8718C58.5051 81.4175 58.705 81.8596 59.1047 82.1984C59.5226 82.5182 60.1131 82.6782 60.8762 82.6782C61.2396 82.6782 61.603 82.6311 61.9663 82.5371C62.3479 82.443 62.7022 82.3207 63.0292 82.1701C63.3563 82.0008 63.647 81.8032 63.9013 81.5774C64.1557 81.3516 64.3465 81.1164 64.4737 80.8718C64.3465 80.6083 64.1557 80.3731 63.9013 80.1661C63.647 79.9403 63.3563 79.7522 63.0292 79.6016C62.7022 79.4323 62.3479 79.3006 61.9663 79.2065C61.603 79.1124 61.2396 79.0654 60.8762 79.0654C60.1131 79.0654 59.5226 79.2347 59.1047 79.5734C58.705 79.8933 58.5051 80.3261 58.5051 80.8718Z"/>
<path d="M72.8195 71.0776L72.547 73.5614H73.2283C73.5008 72.7711 73.9914 72.1031 74.7 71.5575C75.4268 71.0118 76.3261 70.7389 77.3981 70.7389C78.2521 70.7389 79.0606 70.8989 79.8237 71.2187C80.5868 71.5386 81.25 72.0091 81.8132 72.63C82.3946 73.2321 82.8489 73.9848 83.1759 74.888C83.5211 75.7724 83.6937 76.7791 83.6937 77.9081C83.6937 79.0371 83.5211 80.0532 83.1759 80.9564C82.8489 81.8408 82.3946 82.5935 81.8132 83.2145C81.25 83.8166 80.5868 84.2776 79.8237 84.5975C79.0606 84.9174 78.2521 85.0773 77.3981 85.0773C76.3261 85.0773 75.4268 84.8045 74.7 84.2588C73.9914 83.7131 73.5008 83.0451 73.2283 82.2548H72.547L72.8195 84.8233V90.1861H69.9579V71.0776H72.8195ZM72.7922 77.9081C72.7922 78.5479 72.8831 79.1406 73.0648 79.6863C73.2646 80.232 73.5372 80.7024 73.8824 81.0976C74.2458 81.4927 74.6727 81.8032 75.1633 82.029C75.6721 82.236 76.2262 82.3395 76.8258 82.3395C77.4254 82.3395 77.9704 82.236 78.461 82.029C78.9516 81.8032 79.3695 81.4927 79.7147 81.0976C80.0781 80.7024 80.3506 80.232 80.5323 79.6863C80.7322 79.1406 80.8321 78.5479 80.8321 77.9081C80.8321 77.2684 80.7322 76.6756 80.5323 76.1299C80.3506 75.5842 80.0781 75.1138 79.7147 74.7187C79.3695 74.3235 78.9516 74.0225 78.461 73.8155C77.9704 73.5897 77.4254 73.4768 76.8258 73.4768C76.2262 73.4768 75.6721 73.5897 75.1633 73.8155C74.6727 74.0225 74.2458 74.3235 73.8824 74.7187C73.5372 75.1138 73.2646 75.5842 73.0648 76.1299C72.8831 76.6756 72.7922 77.2684 72.7922 77.9081Z"/>
<path d="M88.583 71.0776L88.3105 73.5614H88.9918C89.2644 72.7711 89.7549 72.1031 90.4635 71.5575C91.1903 71.0118 92.0897 70.7389 93.1616 70.7389C94.0156 70.7389 94.8241 70.8989 95.5872 71.2187C96.3503 71.5386 97.0135 72.0091 97.5767 72.63C98.1582 73.2321 98.6124 73.9848 98.9394 74.888C99.2846 75.7724 99.4572 76.7791 99.4572 77.9081C99.4572 79.0371 99.2846 80.0532 98.9394 80.9564C98.6124 81.8408 98.1582 82.5935 97.5767 83.2145C97.0135 83.8166 96.3503 84.2776 95.5872 84.5975C94.8241 84.9174 94.0156 85.0773 93.1616 85.0773C92.0897 85.0773 91.1903 84.8045 90.4635 84.2588C89.7549 83.7131 89.2644 83.0451 88.9918 82.2548H88.3105L88.583 84.8233V90.1861H85.7214V71.0776H88.583ZM88.5558 77.9081C88.5558 78.5479 88.6466 79.1406 88.8283 79.6863C89.0282 80.232 89.3007 80.7024 89.6459 81.0976C90.0093 81.4927 90.4363 81.8032 90.9268 82.029C91.4356 82.236 91.9897 82.3395 92.5893 82.3395C93.1889 82.3395 93.734 82.236 94.2245 82.029C94.7151 81.8032 95.133 81.4927 95.4782 81.0976C95.8416 80.7024 96.1141 80.232 96.2958 79.6863C96.4957 79.1406 96.5956 78.5479 96.5956 77.9081C96.5956 77.2684 96.4957 76.6756 96.2958 76.1299C96.1141 75.5842 95.8416 75.1138 95.4782 74.7187C95.133 74.3235 94.7151 74.0225 94.2245 73.8155C93.734 73.5897 93.1889 73.4768 92.5893 73.4768C91.9897 73.4768 91.4356 73.5897 90.9268 73.8155C90.4363 74.0225 90.0093 74.3235 89.6459 74.7187C89.3007 75.1138 89.0282 75.5842 88.8283 76.1299C88.6466 76.6756 88.5558 77.2684 88.5558 77.9081Z"/>
<path d="M99.891 87.1095C100 87.2224 100.127 87.3071 100.273 87.3636C100.436 87.4388 100.6 87.4953 100.763 87.5329C100.927 87.5706 101.081 87.5988 101.226 87.6176C101.372 87.6364 101.49 87.6458 101.581 87.6458C102.798 87.6458 103.888 86.4886 104.851 84.1741L99.4277 71.0776H102.562L104.66 76.638C105.024 77.5788 105.305 78.4632 105.505 79.2912C105.723 80.1191 105.85 80.8153 105.887 81.3798H106.568C106.604 80.8153 106.723 80.1191 106.922 79.2912C107.14 78.4632 107.431 77.5788 107.795 76.638L109.893 71.0776H113L107.277 84.8515C106.822 85.9429 106.368 86.8461 105.914 87.5611C105.46 88.2762 104.996 88.8407 104.524 89.2547C104.07 89.6686 103.597 89.9603 103.107 90.1296C102.634 90.299 102.144 90.3837 101.635 90.3837C101.235 90.3837 100.827 90.3366 100.409 90.2425C99.9909 90.1485 99.5548 89.9791 99.1006 89.7345L99.891 87.1095Z"/>
</mask>
<path d="M37 64.6987H39.9979V71.2752C39.9979 71.5386 39.9707 71.8962 39.9161 72.3478C39.8798 72.7805 39.8071 73.1287 39.6981 73.3921L40.1887 73.7872C40.3522 73.712 40.4794 73.6461 40.5702 73.5897C40.6611 73.5332 40.8064 73.4956 41.0063 73.4768C41.2062 73.4391 41.4969 73.4109 41.8784 73.3921C42.26 73.3733 42.805 73.3639 43.5136 73.3639H46.8113C47.5199 73.3639 48.065 73.3733 48.4466 73.3921C48.8281 73.4109 49.1188 73.4391 49.3187 73.4768C49.5185 73.4956 49.6639 73.5332 49.7547 73.5897C49.8456 73.6461 49.9728 73.712 50.1363 73.7872L50.6269 73.3921C50.5179 73.1287 50.4361 72.7805 50.3816 72.3478C50.3452 71.8962 50.3271 71.5386 50.3271 71.2752V64.6987H53.325V84.7386H50.3271V78.3315C50.3271 78.0681 50.3452 77.72 50.3816 77.2872C50.4361 76.8356 50.5179 76.478 50.6269 76.2146L50.1363 75.8195C49.9728 75.8947 49.8456 75.9606 49.7547 76.017C49.6639 76.0735 49.5185 76.1205 49.3187 76.1582C49.1188 76.177 48.8281 76.1958 48.4466 76.2146C48.065 76.2334 47.5199 76.2428 46.8113 76.2428H43.5136C42.805 76.2428 42.26 76.2334 41.8784 76.2146C41.4969 76.1958 41.2062 76.177 41.0063 76.1582C40.8064 76.1205 40.6611 76.0735 40.5702 76.017C40.4794 75.9606 40.3522 75.8947 40.1887 75.8195L39.6981 76.2146C39.8071 76.478 39.8798 76.8356 39.9161 77.2872C39.9707 77.72 39.9979 78.0681 39.9979 78.3315V84.7386H37V64.6987Z" fill="#1D2A2A"/>
<path d="M55.6707 80.8718C55.6707 80.2132 55.7797 79.6299 55.9978 79.1218C56.234 78.5949 56.561 78.1527 56.9789 77.7952C57.3968 77.4189 57.8964 77.1366 58.4779 76.9485C59.0593 76.7603 59.6952 76.6662 60.3856 76.6662C61.2941 76.6662 62.0208 76.8356 62.5659 77.1743C63.1292 77.4942 63.6197 78.0022 64.0376 78.6984L64.4464 78.6702V77.1178C64.4464 76.3463 64.3556 75.716 64.1739 75.2267C64.0104 74.7375 63.7742 74.3612 63.4653 74.0977C63.1746 73.8343 62.8203 73.6555 62.4024 73.5614C61.9845 73.4674 61.5303 73.4203 61.0397 73.4203C60.531 73.4203 60.0949 73.4862 59.7315 73.6179C59.3681 73.7496 59.0593 73.919 58.8049 74.1259C58.5687 74.3141 58.3779 74.5117 58.2326 74.7187C58.0872 74.9068 57.9873 75.0762 57.9328 75.2267L55.7525 73.505C55.9523 73.0534 56.2431 72.6582 56.6246 72.3195C57.0062 71.962 57.4422 71.6704 57.9328 71.4445C58.4233 71.1999 58.9503 71.0212 59.5135 70.9083C60.0949 70.7954 60.6763 70.7389 61.2577 70.7389C63.111 70.7389 64.5827 71.2564 65.6728 72.2913C66.763 73.3074 67.3081 74.7751 67.3081 76.6944V84.7386H64.6645V82.8475L64.0649 82.7911C63.9922 83.0733 63.8559 83.3556 63.6561 83.6378C63.4562 83.9013 63.1928 84.1459 62.8657 84.3717C62.5387 84.5787 62.148 84.748 61.6938 84.8797C61.2577 85.0115 60.7581 85.0773 60.1948 85.0773C59.5589 85.0773 58.9593 84.9832 58.3961 84.7951C57.851 84.6069 57.3695 84.3341 56.9516 83.9765C56.5519 83.6002 56.234 83.158 55.9978 82.65C55.7797 82.1231 55.6707 81.5304 55.6707 80.8718ZM58.5051 80.8718C58.5051 81.4175 58.705 81.8596 59.1047 82.1984C59.5226 82.5182 60.1131 82.6782 60.8762 82.6782C61.2396 82.6782 61.603 82.6311 61.9663 82.5371C62.3479 82.443 62.7022 82.3207 63.0292 82.1701C63.3563 82.0008 63.647 81.8032 63.9013 81.5774C64.1557 81.3516 64.3465 81.1164 64.4737 80.8718C64.3465 80.6083 64.1557 80.3731 63.9013 80.1661C63.647 79.9403 63.3563 79.7522 63.0292 79.6016C62.7022 79.4323 62.3479 79.3006 61.9663 79.2065C61.603 79.1124 61.2396 79.0654 60.8762 79.0654C60.1131 79.0654 59.5226 79.2347 59.1047 79.5734C58.705 79.8933 58.5051 80.3261 58.5051 80.8718Z" fill="#1D2A2A"/>
<path d="M72.8195 71.0776L72.547 73.5614H73.2283C73.5008 72.7711 73.9914 72.1031 74.7 71.5575C75.4268 71.0118 76.3261 70.7389 77.3981 70.7389C78.2521 70.7389 79.0606 70.8989 79.8237 71.2187C80.5868 71.5386 81.25 72.0091 81.8132 72.63C82.3946 73.2321 82.8489 73.9848 83.1759 74.888C83.5211 75.7724 83.6937 76.7791 83.6937 77.9081C83.6937 79.0371 83.5211 80.0532 83.1759 80.9564C82.8489 81.8408 82.3946 82.5935 81.8132 83.2145C81.25 83.8166 80.5868 84.2776 79.8237 84.5975C79.0606 84.9174 78.2521 85.0773 77.3981 85.0773C76.3261 85.0773 75.4268 84.8045 74.7 84.2588C73.9914 83.7131 73.5008 83.0451 73.2283 82.2548H72.547L72.8195 84.8233V90.1861H69.9579V71.0776H72.8195ZM72.7922 77.9081C72.7922 78.5479 72.8831 79.1406 73.0648 79.6863C73.2646 80.232 73.5372 80.7024 73.8824 81.0976C74.2458 81.4927 74.6727 81.8032 75.1633 82.029C75.6721 82.236 76.2262 82.3395 76.8258 82.3395C77.4254 82.3395 77.9704 82.236 78.461 82.029C78.9516 81.8032 79.3695 81.4927 79.7147 81.0976C80.0781 80.7024 80.3506 80.232 80.5323 79.6863C80.7322 79.1406 80.8321 78.5479 80.8321 77.9081C80.8321 77.2684 80.7322 76.6756 80.5323 76.1299C80.3506 75.5842 80.0781 75.1138 79.7147 74.7187C79.3695 74.3235 78.9516 74.0225 78.461 73.8155C77.9704 73.5897 77.4254 73.4768 76.8258 73.4768C76.2262 73.4768 75.6721 73.5897 75.1633 73.8155C74.6727 74.0225 74.2458 74.3235 73.8824 74.7187C73.5372 75.1138 73.2646 75.5842 73.0648 76.1299C72.8831 76.6756 72.7922 77.2684 72.7922 77.9081Z" fill="#1D2A2A"/>
<path d="M88.583 71.0776L88.3105 73.5614H88.9918C89.2644 72.7711 89.7549 72.1031 90.4635 71.5575C91.1903 71.0118 92.0897 70.7389 93.1616 70.7389C94.0156 70.7389 94.8241 70.8989 95.5872 71.2187C96.3503 71.5386 97.0135 72.0091 97.5767 72.63C98.1582 73.2321 98.6124 73.9848 98.9394 74.888C99.2846 75.7724 99.4572 76.7791 99.4572 77.9081C99.4572 79.0371 99.2846 80.0532 98.9394 80.9564C98.6124 81.8408 98.1582 82.5935 97.5767 83.2145C97.0135 83.8166 96.3503 84.2776 95.5872 84.5975C94.8241 84.9174 94.0156 85.0773 93.1616 85.0773C92.0897 85.0773 91.1903 84.8045 90.4635 84.2588C89.7549 83.7131 89.2644 83.0451 88.9918 82.2548H88.3105L88.583 84.8233V90.1861H85.7214V71.0776H88.583ZM88.5558 77.9081C88.5558 78.5479 88.6466 79.1406 88.8283 79.6863C89.0282 80.232 89.3007 80.7024 89.6459 81.0976C90.0093 81.4927 90.4363 81.8032 90.9268 82.029C91.4356 82.236 91.9897 82.3395 92.5893 82.3395C93.1889 82.3395 93.734 82.236 94.2245 82.029C94.7151 81.8032 95.133 81.4927 95.4782 81.0976C95.8416 80.7024 96.1141 80.232 96.2958 79.6863C96.4957 79.1406 96.5956 78.5479 96.5956 77.9081C96.5956 77.2684 96.4957 76.6756 96.2958 76.1299C96.1141 75.5842 95.8416 75.1138 95.4782 74.7187C95.133 74.3235 94.7151 74.0225 94.2245 73.8155C93.734 73.5897 93.1889 73.4768 92.5893 73.4768C91.9897 73.4768 91.4356 73.5897 90.9268 73.8155C90.4363 74.0225 90.0093 74.3235 89.6459 74.7187C89.3007 75.1138 89.0282 75.5842 88.8283 76.1299C88.6466 76.6756 88.5558 77.2684 88.5558 77.9081Z" fill="#1D2A2A"/>
<path d="M99.891 87.1095C100 87.2224 100.127 87.3071 100.273 87.3636C100.436 87.4388 100.6 87.4953 100.763 87.5329C100.927 87.5706 101.081 87.5988 101.226 87.6176C101.372 87.6364 101.49 87.6458 101.581 87.6458C102.798 87.6458 103.888 86.4886 104.851 84.1741L99.4277 71.0776H102.562L104.66 76.638C105.024 77.5788 105.305 78.4632 105.505 79.2912C105.723 80.1191 105.85 80.8153 105.887 81.3798H106.568C106.604 80.8153 106.723 80.1191 106.922 79.2912C107.14 78.4632 107.431 77.5788 107.795 76.638L109.893 71.0776H113L107.277 84.8515C106.822 85.9429 106.368 86.8461 105.914 87.5611C105.46 88.2762 104.996 88.8407 104.524 89.2547C104.07 89.6686 103.597 89.9603 103.107 90.1296C102.634 90.299 102.144 90.3837 101.635 90.3837C101.235 90.3837 100.827 90.3366 100.409 90.2425C99.9909 90.1485 99.5548 89.9791 99.1006 89.7345L99.891 87.1095Z" fill="#1D2A2A"/>
<path d="M37 64.6987H39.9979V71.2752C39.9979 71.5386 39.9707 71.8962 39.9161 72.3478C39.8798 72.7805 39.8071 73.1287 39.6981 73.3921L40.1887 73.7872C40.3522 73.712 40.4794 73.6461 40.5702 73.5897C40.6611 73.5332 40.8064 73.4956 41.0063 73.4768C41.2062 73.4391 41.4969 73.4109 41.8784 73.3921C42.26 73.3733 42.805 73.3639 43.5136 73.3639H46.8113C47.5199 73.3639 48.065 73.3733 48.4466 73.3921C48.8281 73.4109 49.1188 73.4391 49.3187 73.4768C49.5185 73.4956 49.6639 73.5332 49.7547 73.5897C49.8456 73.6461 49.9728 73.712 50.1363 73.7872L50.6269 73.3921C50.5179 73.1287 50.4361 72.7805 50.3816 72.3478C50.3452 71.8962 50.3271 71.5386 50.3271 71.2752V64.6987H53.325V84.7386H50.3271V78.3315C50.3271 78.0681 50.3452 77.72 50.3816 77.2872C50.4361 76.8356 50.5179 76.478 50.6269 76.2146L50.1363 75.8195C49.9728 75.8947 49.8456 75.9606 49.7547 76.017C49.6639 76.0735 49.5185 76.1205 49.3187 76.1582C49.1188 76.177 48.8281 76.1958 48.4466 76.2146C48.065 76.2334 47.5199 76.2428 46.8113 76.2428H43.5136C42.805 76.2428 42.26 76.2334 41.8784 76.2146C41.4969 76.1958 41.2062 76.177 41.0063 76.1582C40.8064 76.1205 40.6611 76.0735 40.5702 76.017C40.4794 75.9606 40.3522 75.8947 40.1887 75.8195L39.6981 76.2146C39.8071 76.478 39.8798 76.8356 39.9161 77.2872C39.9707 77.72 39.9979 78.0681 39.9979 78.3315V84.7386H37V64.6987Z" stroke="#1D2A2A" stroke-width="0.3" mask="url(#path-2-outside-1_1405_3450)"/>
<path d="M55.6707 80.8718C55.6707 80.2132 55.7797 79.6299 55.9978 79.1218C56.234 78.5949 56.561 78.1527 56.9789 77.7952C57.3968 77.4189 57.8964 77.1366 58.4779 76.9485C59.0593 76.7603 59.6952 76.6662 60.3856 76.6662C61.2941 76.6662 62.0208 76.8356 62.5659 77.1743C63.1292 77.4942 63.6197 78.0022 64.0376 78.6984L64.4464 78.6702V77.1178C64.4464 76.3463 64.3556 75.716 64.1739 75.2267C64.0104 74.7375 63.7742 74.3612 63.4653 74.0977C63.1746 73.8343 62.8203 73.6555 62.4024 73.5614C61.9845 73.4674 61.5303 73.4203 61.0397 73.4203C60.531 73.4203 60.0949 73.4862 59.7315 73.6179C59.3681 73.7496 59.0593 73.919 58.8049 74.1259C58.5687 74.3141 58.3779 74.5117 58.2326 74.7187C58.0872 74.9068 57.9873 75.0762 57.9328 75.2267L55.7525 73.505C55.9523 73.0534 56.2431 72.6582 56.6246 72.3195C57.0062 71.962 57.4422 71.6704 57.9328 71.4445C58.4233 71.1999 58.9503 71.0212 59.5135 70.9083C60.0949 70.7954 60.6763 70.7389 61.2577 70.7389C63.111 70.7389 64.5827 71.2564 65.6728 72.2913C66.763 73.3074 67.3081 74.7751 67.3081 76.6944V84.7386H64.6645V82.8475L64.0649 82.7911C63.9922 83.0733 63.8559 83.3556 63.6561 83.6378C63.4562 83.9013 63.1928 84.1459 62.8657 84.3717C62.5387 84.5787 62.148 84.748 61.6938 84.8797C61.2577 85.0115 60.7581 85.0773 60.1948 85.0773C59.5589 85.0773 58.9593 84.9832 58.3961 84.7951C57.851 84.6069 57.3695 84.3341 56.9516 83.9765C56.5519 83.6002 56.234 83.158 55.9978 82.65C55.7797 82.1231 55.6707 81.5304 55.6707 80.8718ZM58.5051 80.8718C58.5051 81.4175 58.705 81.8596 59.1047 82.1984C59.5226 82.5182 60.1131 82.6782 60.8762 82.6782C61.2396 82.6782 61.603 82.6311 61.9663 82.5371C62.3479 82.443 62.7022 82.3207 63.0292 82.1701C63.3563 82.0008 63.647 81.8032 63.9013 81.5774C64.1557 81.3516 64.3465 81.1164 64.4737 80.8718C64.3465 80.6083 64.1557 80.3731 63.9013 80.1661C63.647 79.9403 63.3563 79.7522 63.0292 79.6016C62.7022 79.4323 62.3479 79.3006 61.9663 79.2065C61.603 79.1124 61.2396 79.0654 60.8762 79.0654C60.1131 79.0654 59.5226 79.2347 59.1047 79.5734C58.705 79.8933 58.5051 80.3261 58.5051 80.8718Z" stroke="#1D2A2A" stroke-width="0.3" mask="url(#path-2-outside-1_1405_3450)"/>
<path d="M72.8195 71.0776L72.547 73.5614H73.2283C73.5008 72.7711 73.9914 72.1031 74.7 71.5575C75.4268 71.0118 76.3261 70.7389 77.3981 70.7389C78.2521 70.7389 79.0606 70.8989 79.8237 71.2187C80.5868 71.5386 81.25 72.0091 81.8132 72.63C82.3946 73.2321 82.8489 73.9848 83.1759 74.888C83.5211 75.7724 83.6937 76.7791 83.6937 77.9081C83.6937 79.0371 83.5211 80.0532 83.1759 80.9564C82.8489 81.8408 82.3946 82.5935 81.8132 83.2145C81.25 83.8166 80.5868 84.2776 79.8237 84.5975C79.0606 84.9174 78.2521 85.0773 77.3981 85.0773C76.3261 85.0773 75.4268 84.8045 74.7 84.2588C73.9914 83.7131 73.5008 83.0451 73.2283 82.2548H72.547L72.8195 84.8233V90.1861H69.9579V71.0776H72.8195ZM72.7922 77.9081C72.7922 78.5479 72.8831 79.1406 73.0648 79.6863C73.2646 80.232 73.5372 80.7024 73.8824 81.0976C74.2458 81.4927 74.6727 81.8032 75.1633 82.029C75.6721 82.236 76.2262 82.3395 76.8258 82.3395C77.4254 82.3395 77.9704 82.236 78.461 82.029C78.9516 81.8032 79.3695 81.4927 79.7147 81.0976C80.0781 80.7024 80.3506 80.232 80.5323 79.6863C80.7322 79.1406 80.8321 78.5479 80.8321 77.9081C80.8321 77.2684 80.7322 76.6756 80.5323 76.1299C80.3506 75.5842 80.0781 75.1138 79.7147 74.7187C79.3695 74.3235 78.9516 74.0225 78.461 73.8155C77.9704 73.5897 77.4254 73.4768 76.8258 73.4768C76.2262 73.4768 75.6721 73.5897 75.1633 73.8155C74.6727 74.0225 74.2458 74.3235 73.8824 74.7187C73.5372 75.1138 73.2646 75.5842 73.0648 76.1299C72.8831 76.6756 72.7922 77.2684 72.7922 77.9081Z" stroke="#1D2A2A" stroke-width="0.3" mask="url(#path-2-outside-1_1405_3450)"/>
<path d="M88.583 71.0776L88.3105 73.5614H88.9918C89.2644 72.7711 89.7549 72.1031 90.4635 71.5575C91.1903 71.0118 92.0897 70.7389 93.1616 70.7389C94.0156 70.7389 94.8241 70.8989 95.5872 71.2187C96.3503 71.5386 97.0135 72.0091 97.5767 72.63C98.1582 73.2321 98.6124 73.9848 98.9394 74.888C99.2846 75.7724 99.4572 76.7791 99.4572 77.9081C99.4572 79.0371 99.2846 80.0532 98.9394 80.9564C98.6124 81.8408 98.1582 82.5935 97.5767 83.2145C97.0135 83.8166 96.3503 84.2776 95.5872 84.5975C94.8241 84.9174 94.0156 85.0773 93.1616 85.0773C92.0897 85.0773 91.1903 84.8045 90.4635 84.2588C89.7549 83.7131 89.2644 83.0451 88.9918 82.2548H88.3105L88.583 84.8233V90.1861H85.7214V71.0776H88.583ZM88.5558 77.9081C88.5558 78.5479 88.6466 79.1406 88.8283 79.6863C89.0282 80.232 89.3007 80.7024 89.6459 81.0976C90.0093 81.4927 90.4363 81.8032 90.9268 82.029C91.4356 82.236 91.9897 82.3395 92.5893 82.3395C93.1889 82.3395 93.734 82.236 94.2245 82.029C94.7151 81.8032 95.133 81.4927 95.4782 81.0976C95.8416 80.7024 96.1141 80.232 96.2958 79.6863C96.4957 79.1406 96.5956 78.5479 96.5956 77.9081C96.5956 77.2684 96.4957 76.6756 96.2958 76.1299C96.1141 75.5842 95.8416 75.1138 95.4782 74.7187C95.133 74.3235 94.7151 74.0225 94.2245 73.8155C93.734 73.5897 93.1889 73.4768 92.5893 73.4768C91.9897 73.4768 91.4356 73.5897 90.9268 73.8155C90.4363 74.0225 90.0093 74.3235 89.6459 74.7187C89.3007 75.1138 89.0282 75.5842 88.8283 76.1299C88.6466 76.6756 88.5558 77.2684 88.5558 77.9081Z" stroke="#1D2A2A" stroke-width="0.3" mask="url(#path-2-outside-1_1405_3450)"/>
<path d="M99.891 87.1095C100 87.2224 100.127 87.3071 100.273 87.3636C100.436 87.4388 100.6 87.4953 100.763 87.5329C100.927 87.5706 101.081 87.5988 101.226 87.6176C101.372 87.6364 101.49 87.6458 101.581 87.6458C102.798 87.6458 103.888 86.4886 104.851 84.1741L99.4277 71.0776H102.562L104.66 76.638C105.024 77.5788 105.305 78.4632 105.505 79.2912C105.723 80.1191 105.85 80.8153 105.887 81.3798H106.568C106.604 80.8153 106.723 80.1191 106.922 79.2912C107.14 78.4632 107.431 77.5788 107.795 76.638L109.893 71.0776H113L107.277 84.8515C106.822 85.9429 106.368 86.8461 105.914 87.5611C105.46 88.2762 104.996 88.8407 104.524 89.2547C104.07 89.6686 103.597 89.9603 103.107 90.1296C102.634 90.299 102.144 90.3837 101.635 90.3837C101.235 90.3837 100.827 90.3366 100.409 90.2425C99.9909 90.1485 99.5548 89.9791 99.1006 89.7345L99.891 87.1095Z" stroke="#1D2A2A" stroke-width="0.3" mask="url(#path-2-outside-1_1405_3450)"/>
<mask id="path-3-outside-2_1405_3450" maskUnits="userSpaceOnUse" x="36" y="34.959" width="76" height="25" fill="black">
<rect fill="white" x="36" y="34.959" width="76" height="25"/>
<path d="M37 35.959H40.4456L44.028 42.269C44.265 42.6672 44.4929 43.1432 44.7116 43.6972C44.9304 44.2512 45.0762 44.8051 45.1492 45.3591H45.9695C46.0425 44.8051 46.1883 44.2512 46.4071 43.6972C46.6259 43.1432 46.8537 42.6672 47.0907 42.269L50.6731 35.959H54.1187L47.0634 48.1116V54.3957H44.0553V48.1116L37 35.959Z"/>
<path d="M51.7133 48.1116C51.7133 47.1422 51.8774 46.2593 52.2055 45.463C52.5519 44.6493 53.035 43.9569 53.6549 43.3856C54.2747 42.797 55.0131 42.3383 55.8699 42.0093C56.7268 41.6804 57.6748 41.516 58.7139 41.516C59.7531 41.516 60.7011 41.6804 61.5579 42.0093C62.4148 42.3383 63.1531 42.797 63.773 43.3856C64.3928 43.9569 64.8668 44.6493 65.195 45.463C65.5414 46.2593 65.7146 47.1422 65.7146 48.1116C65.7146 49.0638 65.5414 49.9466 65.195 50.7603C64.8668 51.5739 64.3928 52.275 63.773 52.8636C63.1531 53.4349 62.4148 53.885 61.5579 54.2139C60.7011 54.5428 59.7531 54.7073 58.7139 54.7073C57.6748 54.7073 56.7268 54.5428 55.8699 54.2139C55.0131 53.885 54.2747 53.4349 53.6549 52.8636C53.035 52.275 52.5519 51.5739 52.2055 50.7603C51.8774 49.9466 51.7133 49.0638 51.7133 48.1116ZM54.53 48.1116C54.53 48.7175 54.6302 49.2801 54.8308 49.7995C55.0495 50.3015 55.3412 50.7343 55.7059 51.0979C56.0705 51.4614 56.508 51.747 57.0185 51.9548C57.5289 52.1625 58.0941 52.2664 58.7139 52.2664C59.3338 52.2664 59.8989 52.1625 60.4094 51.9548C60.9199 51.747 61.3574 51.4614 61.722 51.0979C62.1049 50.7343 62.3966 50.3015 62.5971 49.7995C62.7976 49.2801 62.8979 48.7175 62.8979 48.1116C62.8979 47.5057 62.7976 46.9518 62.5971 46.4497C62.3966 45.9304 62.1049 45.4889 61.722 45.1254C61.3574 44.7619 60.9199 44.4762 60.4094 44.2685C59.8989 44.0607 59.3338 43.9569 58.7139 43.9569C58.0941 43.9569 57.5289 44.0607 57.0185 44.2685C56.508 44.4762 56.0705 44.7619 55.7059 45.1254C55.3412 45.4889 55.0495 45.9304 54.8308 46.4497C54.6302 46.9518 54.53 47.5057 54.53 48.1116Z"/>
<path d="M67.7053 49.5398V41.8276H70.5766V48.8127C70.5766 51.0979 71.6614 52.2404 73.8308 52.2404C76.0732 52.2404 77.1944 51.0979 77.1944 48.8127V41.8276H80.0658V54.3957H77.1944L77.3311 52.0846H76.6475C76.5563 52.3789 76.4105 52.6819 76.2099 52.9935C76.0094 53.3051 75.7359 53.5907 75.3896 53.8504C75.0614 54.0927 74.6512 54.2918 74.159 54.4476C73.685 54.6207 73.1289 54.7073 72.4909 54.7073C70.9777 54.7073 69.8018 54.2572 68.9632 53.357C68.1246 52.4395 67.7053 51.1671 67.7053 49.5398Z"/>
<path d="M82.7485 41.8276H85.6198L85.4831 44.1386H86.1667C86.2579 43.8444 86.4037 43.5414 86.6043 43.2298C86.8048 42.9182 87.0692 42.6412 87.3973 42.3988C87.7437 42.1392 88.1539 41.9314 88.6279 41.7756C89.1201 41.6025 89.6853 41.516 90.3233 41.516C91.8 41.516 92.9668 41.9834 93.8237 42.9182C94.6805 43.8357 95.1089 45.1341 95.1089 46.8133V54.3957H92.2376V47.6702C92.2376 46.3891 91.9732 45.4457 91.4445 44.8398C90.9341 44.2165 90.1137 43.9049 88.9834 43.9049C87.7984 43.9049 86.9415 44.2858 86.4128 45.0475C85.8842 45.7919 85.6198 46.7527 85.6198 47.9299V54.3957H82.7485V41.8276Z"/>
<path d="M103.48 41.516C104.555 41.516 105.449 41.767 106.16 42.269C106.871 42.771 107.363 43.3856 107.636 44.1127H108.32L108.046 41.8276H110.918V53.0454C110.918 53.9629 110.754 54.8198 110.426 55.6161C110.097 56.4125 109.623 57.1049 109.004 57.6935C108.384 58.2821 107.627 58.7409 106.734 59.0698C105.841 59.416 104.82 59.5891 103.671 59.5891C102.395 59.5891 101.255 59.39 100.253 58.9919C99.2683 58.611 98.4935 58.1263 97.9284 57.5377L99.6238 55.4084C100.08 55.9797 100.681 56.4384 101.429 56.7847C102.194 57.1482 102.969 57.33 103.753 57.33C104.355 57.33 104.929 57.2175 105.476 56.9924C106.023 56.7847 106.506 56.4817 106.925 56.0836C107.363 55.7027 107.7 55.2439 107.937 54.7073C108.192 54.1706 108.32 53.5907 108.32 52.9675V52.1106H107.636C107.363 52.8377 106.871 53.4522 106.16 53.9542C105.449 54.4563 104.555 54.7073 103.48 54.7073C102.623 54.7073 101.802 54.5601 101.018 54.2659C100.253 53.9542 99.5782 53.5215 98.9949 52.9675C98.4115 52.3962 97.9466 51.7038 97.6002 50.8901C97.2721 50.0765 97.108 49.1503 97.108 48.1116C97.108 47.0729 97.2721 46.1468 97.6002 45.3331C97.9466 44.5195 98.4115 43.8357 98.9949 43.2817C99.5782 42.7105 100.253 42.2777 101.018 41.9834C101.802 41.6718 102.623 41.516 103.48 41.516ZM99.9793 48.1116C99.9793 48.7002 100.08 49.2455 100.28 49.7476C100.481 50.2496 100.754 50.6824 101.101 51.0459C101.465 51.4095 101.894 51.6951 102.386 51.9028C102.878 52.0933 103.425 52.1885 104.027 52.1885C104.628 52.1885 105.175 52.0933 105.667 51.9028C106.178 51.6951 106.606 51.4095 106.953 51.0459C107.299 50.6824 107.563 50.2496 107.746 49.7476C107.946 49.2455 108.046 48.7002 108.046 48.1116C108.046 47.523 107.946 46.9777 107.746 46.4757C107.563 45.9737 107.299 45.5409 106.953 45.1773C106.606 44.8138 106.178 44.5368 105.667 44.3464C105.175 44.1386 104.628 44.0348 104.027 44.0348C103.425 44.0348 102.878 44.1386 102.386 44.3464C101.894 44.5368 101.465 44.8138 101.101 45.1773C100.754 45.5409 100.481 45.9737 100.28 46.4757C100.08 46.9777 99.9793 47.523 99.9793 48.1116Z"/>
</mask>
<path d="M37 35.959H40.4456L44.028 42.269C44.265 42.6672 44.4929 43.1432 44.7116 43.6972C44.9304 44.2512 45.0762 44.8051 45.1492 45.3591H45.9695C46.0425 44.8051 46.1883 44.2512 46.4071 43.6972C46.6259 43.1432 46.8537 42.6672 47.0907 42.269L50.6731 35.959H54.1187L47.0634 48.1116V54.3957H44.0553V48.1116L37 35.959Z" fill="#1D2A2A"/>
<path d="M51.7133 48.1116C51.7133 47.1422 51.8774 46.2593 52.2055 45.463C52.5519 44.6493 53.035 43.9569 53.6549 43.3856C54.2747 42.797 55.0131 42.3383 55.8699 42.0093C56.7268 41.6804 57.6748 41.516 58.7139 41.516C59.7531 41.516 60.7011 41.6804 61.5579 42.0093C62.4148 42.3383 63.1531 42.797 63.773 43.3856C64.3928 43.9569 64.8668 44.6493 65.195 45.463C65.5414 46.2593 65.7146 47.1422 65.7146 48.1116C65.7146 49.0638 65.5414 49.9466 65.195 50.7603C64.8668 51.5739 64.3928 52.275 63.773 52.8636C63.1531 53.4349 62.4148 53.885 61.5579 54.2139C60.7011 54.5428 59.7531 54.7073 58.7139 54.7073C57.6748 54.7073 56.7268 54.5428 55.8699 54.2139C55.0131 53.885 54.2747 53.4349 53.6549 52.8636C53.035 52.275 52.5519 51.5739 52.2055 50.7603C51.8774 49.9466 51.7133 49.0638 51.7133 48.1116ZM54.53 48.1116C54.53 48.7175 54.6302 49.2801 54.8308 49.7995C55.0495 50.3015 55.3412 50.7343 55.7059 51.0979C56.0705 51.4614 56.508 51.747 57.0185 51.9548C57.5289 52.1625 58.0941 52.2664 58.7139 52.2664C59.3338 52.2664 59.8989 52.1625 60.4094 51.9548C60.9199 51.747 61.3574 51.4614 61.722 51.0979C62.1049 50.7343 62.3966 50.3015 62.5971 49.7995C62.7976 49.2801 62.8979 48.7175 62.8979 48.1116C62.8979 47.5057 62.7976 46.9518 62.5971 46.4497C62.3966 45.9304 62.1049 45.4889 61.722 45.1254C61.3574 44.7619 60.9199 44.4762 60.4094 44.2685C59.8989 44.0607 59.3338 43.9569 58.7139 43.9569C58.0941 43.9569 57.5289 44.0607 57.0185 44.2685C56.508 44.4762 56.0705 44.7619 55.7059 45.1254C55.3412 45.4889 55.0495 45.9304 54.8308 46.4497C54.6302 46.9518 54.53 47.5057 54.53 48.1116Z" fill="#1D2A2A"/>
<path d="M67.7053 49.5398V41.8276H70.5766V48.8127C70.5766 51.0979 71.6614 52.2404 73.8308 52.2404C76.0732 52.2404 77.1944 51.0979 77.1944 48.8127V41.8276H80.0658V54.3957H77.1944L77.3311 52.0846H76.6475C76.5563 52.3789 76.4105 52.6819 76.2099 52.9935C76.0094 53.3051 75.7359 53.5907 75.3896 53.8504C75.0614 54.0927 74.6512 54.2918 74.159 54.4476C73.685 54.6207 73.1289 54.7073 72.4909 54.7073C70.9777 54.7073 69.8018 54.2572 68.9632 53.357C68.1246 52.4395 67.7053 51.1671 67.7053 49.5398Z" fill="#1D2A2A"/>
<path d="M82.7485 41.8276H85.6198L85.4831 44.1386H86.1667C86.2579 43.8444 86.4037 43.5414 86.6043 43.2298C86.8048 42.9182 87.0692 42.6412 87.3973 42.3988C87.7437 42.1392 88.1539 41.9314 88.6279 41.7756C89.1201 41.6025 89.6853 41.516 90.3233 41.516C91.8 41.516 92.9668 41.9834 93.8237 42.9182C94.6805 43.8357 95.1089 45.1341 95.1089 46.8133V54.3957H92.2376V47.6702C92.2376 46.3891 91.9732 45.4457 91.4445 44.8398C90.9341 44.2165 90.1137 43.9049 88.9834 43.9049C87.7984 43.9049 86.9415 44.2858 86.4128 45.0475C85.8842 45.7919 85.6198 46.7527 85.6198 47.9299V54.3957H82.7485V41.8276Z" fill="#1D2A2A"/>
<path d="M103.48 41.516C104.555 41.516 105.449 41.767 106.16 42.269C106.871 42.771 107.363 43.3856 107.636 44.1127H108.32L108.046 41.8276H110.918V53.0454C110.918 53.9629 110.754 54.8198 110.426 55.6161C110.097 56.4125 109.623 57.1049 109.004 57.6935C108.384 58.2821 107.627 58.7409 106.734 59.0698C105.841 59.416 104.82 59.5891 103.671 59.5891C102.395 59.5891 101.255 59.39 100.253 58.9919C99.2683 58.611 98.4935 58.1263 97.9284 57.5377L99.6238 55.4084C100.08 55.9797 100.681 56.4384 101.429 56.7847C102.194 57.1482 102.969 57.33 103.753 57.33C104.355 57.33 104.929 57.2175 105.476 56.9924C106.023 56.7847 106.506 56.4817 106.925 56.0836C107.363 55.7027 107.7 55.2439 107.937 54.7073C108.192 54.1706 108.32 53.5907 108.32 52.9675V52.1106H107.636C107.363 52.8377 106.871 53.4522 106.16 53.9542C105.449 54.4563 104.555 54.7073 103.48 54.7073C102.623 54.7073 101.802 54.5601 101.018 54.2659C100.253 53.9542 99.5782 53.5215 98.9949 52.9675C98.4115 52.3962 97.9466 51.7038 97.6002 50.8901C97.2721 50.0765 97.108 49.1503 97.108 48.1116C97.108 47.0729 97.2721 46.1468 97.6002 45.3331C97.9466 44.5195 98.4115 43.8357 98.9949 43.2817C99.5782 42.7105 100.253 42.2777 101.018 41.9834C101.802 41.6718 102.623 41.516 103.48 41.516ZM99.9793 48.1116C99.9793 48.7002 100.08 49.2455 100.28 49.7476C100.481 50.2496 100.754 50.6824 101.101 51.0459C101.465 51.4095 101.894 51.6951 102.386 51.9028C102.878 52.0933 103.425 52.1885 104.027 52.1885C104.628 52.1885 105.175 52.0933 105.667 51.9028C106.178 51.6951 106.606 51.4095 106.953 51.0459C107.299 50.6824 107.563 50.2496 107.746 49.7476C107.946 49.2455 108.046 48.7002 108.046 48.1116C108.046 47.523 107.946 46.9777 107.746 46.4757C107.563 45.9737 107.299 45.5409 106.953 45.1773C106.606 44.8138 106.178 44.5368 105.667 44.3464C105.175 44.1386 104.628 44.0348 104.027 44.0348C103.425 44.0348 102.878 44.1386 102.386 44.3464C101.894 44.5368 101.465 44.8138 101.101 45.1773C100.754 45.5409 100.481 45.9737 100.28 46.4757C100.08 46.9777 99.9793 47.523 99.9793 48.1116Z" fill="#1D2A2A"/>
<path d="M37 35.959H40.4456L44.028 42.269C44.265 42.6672 44.4929 43.1432 44.7116 43.6972C44.9304 44.2512 45.0762 44.8051 45.1492 45.3591H45.9695C46.0425 44.8051 46.1883 44.2512 46.4071 43.6972C46.6259 43.1432 46.8537 42.6672 47.0907 42.269L50.6731 35.959H54.1187L47.0634 48.1116V54.3957H44.0553V48.1116L37 35.959Z" stroke="#1D2A2A" stroke-width="0.3" mask="url(#path-3-outside-2_1405_3450)"/>
<path d="M51.7133 48.1116C51.7133 47.1422 51.8774 46.2593 52.2055 45.463C52.5519 44.6493 53.035 43.9569 53.6549 43.3856C54.2747 42.797 55.0131 42.3383 55.8699 42.0093C56.7268 41.6804 57.6748 41.516 58.7139 41.516C59.7531 41.516 60.7011 41.6804 61.5579 42.0093C62.4148 42.3383 63.1531 42.797 63.773 43.3856C64.3928 43.9569 64.8668 44.6493 65.195 45.463C65.5414 46.2593 65.7146 47.1422 65.7146 48.1116C65.7146 49.0638 65.5414 49.9466 65.195 50.7603C64.8668 51.5739 64.3928 52.275 63.773 52.8636C63.1531 53.4349 62.4148 53.885 61.5579 54.2139C60.7011 54.5428 59.7531 54.7073 58.7139 54.7073C57.6748 54.7073 56.7268 54.5428 55.8699 54.2139C55.0131 53.885 54.2747 53.4349 53.6549 52.8636C53.035 52.275 52.5519 51.5739 52.2055 50.7603C51.8774 49.9466 51.7133 49.0638 51.7133 48.1116ZM54.53 48.1116C54.53 48.7175 54.6302 49.2801 54.8308 49.7995C55.0495 50.3015 55.3412 50.7343 55.7059 51.0979C56.0705 51.4614 56.508 51.747 57.0185 51.9548C57.5289 52.1625 58.0941 52.2664 58.7139 52.2664C59.3338 52.2664 59.8989 52.1625 60.4094 51.9548C60.9199 51.747 61.3574 51.4614 61.722 51.0979C62.1049 50.7343 62.3966 50.3015 62.5971 49.7995C62.7976 49.2801 62.8979 48.7175 62.8979 48.1116C62.8979 47.5057 62.7976 46.9518 62.5971 46.4497C62.3966 45.9304 62.1049 45.4889 61.722 45.1254C61.3574 44.7619 60.9199 44.4762 60.4094 44.2685C59.8989 44.0607 59.3338 43.9569 58.7139 43.9569C58.0941 43.9569 57.5289 44.0607 57.0185 44.2685C56.508 44.4762 56.0705 44.7619 55.7059 45.1254C55.3412 45.4889 55.0495 45.9304 54.8308 46.4497C54.6302 46.9518 54.53 47.5057 54.53 48.1116Z" stroke="#1D2A2A" stroke-width="0.3" mask="url(#path-3-outside-2_1405_3450)"/>
<path d="M67.7053 49.5398V41.8276H70.5766V48.8127C70.5766 51.0979 71.6614 52.2404 73.8308 52.2404C76.0732 52.2404 77.1944 51.0979 77.1944 48.8127V41.8276H80.0658V54.3957H77.1944L77.3311 52.0846H76.6475C76.5563 52.3789 76.4105 52.6819 76.2099 52.9935C76.0094 53.3051 75.7359 53.5907 75.3896 53.8504C75.0614 54.0927 74.6512 54.2918 74.159 54.4476C73.685 54.6207 73.1289 54.7073 72.4909 54.7073C70.9777 54.7073 69.8018 54.2572 68.9632 53.357C68.1246 52.4395 67.7053 51.1671 67.7053 49.5398Z" stroke="#1D2A2A" stroke-width="0.3" mask="url(#path-3-outside-2_1405_3450)"/>
<path d="M82.7485 41.8276H85.6198L85.4831 44.1386H86.1667C86.2579 43.8444 86.4037 43.5414 86.6043 43.2298C86.8048 42.9182 87.0692 42.6412 87.3973 42.3988C87.7437 42.1392 88.1539 41.9314 88.6279 41.7756C89.1201 41.6025 89.6853 41.516 90.3233 41.516C91.8 41.516 92.9668 41.9834 93.8237 42.9182C94.6805 43.8357 95.1089 45.1341 95.1089 46.8133V54.3957H92.2376V47.6702C92.2376 46.3891 91.9732 45.4457 91.4445 44.8398C90.9341 44.2165 90.1137 43.9049 88.9834 43.9049C87.7984 43.9049 86.9415 44.2858 86.4128 45.0475C85.8842 45.7919 85.6198 46.7527 85.6198 47.9299V54.3957H82.7485V41.8276Z" stroke="#1D2A2A" stroke-width="0.3" mask="url(#path-3-outside-2_1405_3450)"/>
<path d="M103.48 41.516C104.555 41.516 105.449 41.767 106.16 42.269C106.871 42.771 107.363 43.3856 107.636 44.1127H108.32L108.046 41.8276H110.918V53.0454C110.918 53.9629 110.754 54.8198 110.426 55.6161C110.097 56.4125 109.623 57.1049 109.004 57.6935C108.384 58.2821 107.627 58.7409 106.734 59.0698C105.841 59.416 104.82 59.5891 103.671 59.5891C102.395 59.5891 101.255 59.39 100.253 58.9919C99.2683 58.611 98.4935 58.1263 97.9284 57.5377L99.6238 55.4084C100.08 55.9797 100.681 56.4384 101.429 56.7847C102.194 57.1482 102.969 57.33 103.753 57.33C104.355 57.33 104.929 57.2175 105.476 56.9924C106.023 56.7847 106.506 56.4817 106.925 56.0836C107.363 55.7027 107.7 55.2439 107.937 54.7073C108.192 54.1706 108.32 53.5907 108.32 52.9675V52.1106H107.636C107.363 52.8377 106.871 53.4522 106.16 53.9542C105.449 54.4563 104.555 54.7073 103.48 54.7073C102.623 54.7073 101.802 54.5601 101.018 54.2659C100.253 53.9542 99.5782 53.5215 98.9949 52.9675C98.4115 52.3962 97.9466 51.7038 97.6002 50.8901C97.2721 50.0765 97.108 49.1503 97.108 48.1116C97.108 47.0729 97.2721 46.1468 97.6002 45.3331C97.9466 44.5195 98.4115 43.8357 98.9949 43.2817C99.5782 42.7105 100.253 42.2777 101.018 41.9834C101.802 41.6718 102.623 41.516 103.48 41.516ZM99.9793 48.1116C99.9793 48.7002 100.08 49.2455 100.28 49.7476C100.481 50.2496 100.754 50.6824 101.101 51.0459C101.465 51.4095 101.894 51.6951 102.386 51.9028C102.878 52.0933 103.425 52.1885 104.027 52.1885C104.628 52.1885 105.175 52.0933 105.667 51.9028C106.178 51.6951 106.606 51.4095 106.953 51.0459C107.299 50.6824 107.563 50.2496 107.746 49.7476C107.946 49.2455 108.046 48.7002 108.046 48.1116C108.046 47.523 107.946 46.9777 107.746 46.4757C107.563 45.9737 107.299 45.5409 106.953 45.1773C106.606 44.8138 106.178 44.5368 105.667 44.3464C105.175 44.1386 104.628 44.0348 104.027 44.0348C103.425 44.0348 102.878 44.1386 102.386 44.3464C101.894 44.5368 101.465 44.8138 101.101 45.1773C100.754 45.5409 100.481 45.9737 100.28 46.4757C100.08 46.9777 99.9793 47.523 99.9793 48.1116Z" stroke="#1D2A2A" stroke-width="0.3" mask="url(#path-3-outside-2_1405_3450)"/>
<mask id="path-4-outside-3_1405_3450" maskUnits="userSpaceOnUse" x="39.123" y="96.5481" width="71" height="20" fill="black">
<rect fill="white" x="39.123" y="96.5481" width="71" height="20"/>
<path d="M40.123 115.734V97.5481H45.7526L49.424 108.869C49.5872 109.382 49.7413 109.979 49.8863 110.662C50.0314 111.345 50.1583 112.011 50.2671 112.66H50.9198C51.0285 112.011 51.1554 111.345 51.3005 110.662C51.4455 109.979 51.5996 109.382 51.7628 108.869L55.4342 97.5481H61.0638V115.734H58.0722V103.234C58.0722 102.62 58.0813 102.107 58.0994 101.698C58.1357 101.288 58.2082 100.852 58.317 100.391L57.5011 100.186C57.4286 100.442 57.347 100.741 57.2564 101.083C57.1657 101.424 57.0207 101.894 56.8212 102.492L52.4971 115.734H48.6897L44.3656 102.492C44.1661 101.894 44.0211 101.424 43.9304 101.083C43.8398 100.741 43.7582 100.442 43.6857 100.186L42.8698 100.391C42.9786 100.852 43.0421 101.288 43.0602 101.698C43.0964 102.107 43.1146 102.62 43.1146 103.234V115.734H40.123Z"/>
<path d="M63.8641 101.288V98.7263H66.9916V101.288H63.8641ZM64 115.734V103.337H66.8556V115.734H64Z"/>
<path d="M69.5316 103.337H72.3872L72.2512 105.616H72.9311C73.0217 105.326 73.1668 105.027 73.3662 104.72C73.5656 104.413 73.8285 104.139 74.1549 103.9C74.4994 103.644 74.9073 103.439 75.3787 103.286C75.8682 103.115 76.4303 103.029 77.0648 103.029C78.5334 103.029 79.6938 103.49 80.5459 104.413C81.398 105.318 81.8241 106.598 81.8241 108.255V115.734H78.9685V109.1C78.9685 107.836 78.7056 106.906 78.1799 106.308C77.6722 105.693 76.8563 105.386 75.7322 105.386C74.5538 105.386 73.7016 105.762 73.1758 106.513C72.6501 107.247 72.3872 108.195 72.3872 109.356V115.734H69.5316V103.337Z"/>
<path d="M83.8121 109.535C83.8121 108.511 83.9753 107.597 84.3017 106.795C84.6461 105.975 85.0994 105.292 85.6614 104.746C86.2416 104.182 86.9124 103.755 87.6739 103.465C88.4354 103.175 89.2422 103.029 90.0943 103.029C91.164 103.029 92.0524 103.277 92.7595 103.772C93.4847 104.267 93.9833 104.874 94.2553 105.591H94.9352L94.6632 103.26V97.5481H97.5188V115.734H94.6632L94.9352 113.48H94.2553C93.9833 114.197 93.4847 114.803 92.7595 115.298C92.0524 115.794 91.164 116.041 90.0943 116.041C89.2422 116.041 88.4354 115.896 87.6739 115.606C86.9124 115.316 86.2416 114.897 85.6614 114.351C85.0994 113.787 84.6461 113.104 84.3017 112.302C83.9753 111.482 83.8121 110.56 83.8121 109.535ZM86.6677 109.535C86.6677 110.116 86.7583 110.654 86.9396 111.149C87.1391 111.644 87.411 112.071 87.7555 112.43C88.1181 112.788 88.5442 113.07 89.0337 113.275C89.5232 113.463 90.0672 113.557 90.6655 113.557C91.2638 113.557 91.8077 113.463 92.2972 113.275C92.8049 113.07 93.2309 112.788 93.5754 112.43C93.938 112.071 94.21 111.644 94.3913 111.149C94.5907 110.654 94.6904 110.116 94.6904 109.535C94.6904 108.955 94.5907 108.417 94.3913 107.922C94.21 107.426 93.938 107 93.5754 106.641C93.2309 106.282 92.8049 106.009 92.2972 105.821C91.8077 105.616 91.2638 105.514 90.6655 105.514C90.0672 105.514 89.5232 105.616 89.0337 105.821C88.5442 106.009 88.1181 106.282 87.7555 106.641C87.411 107 87.1391 107.426 86.9396 107.922C86.7583 108.417 86.6677 108.955 86.6677 109.535Z"/>
<path d="M98.9982 113.89L100.603 111.764C101.074 112.464 101.681 112.985 102.425 113.326C103.168 113.651 103.875 113.813 104.546 113.813C104.673 113.813 104.882 113.804 105.172 113.787C105.48 113.753 105.788 113.693 106.096 113.608C106.404 113.505 106.676 113.369 106.912 113.198C107.148 113.01 107.266 112.754 107.266 112.43C107.266 112.037 107.084 111.747 106.722 111.559C106.359 111.354 105.897 111.183 105.335 111.047C104.791 110.91 104.193 110.773 103.54 110.637C102.905 110.5 102.307 110.304 101.745 110.048C101.201 109.774 100.748 109.407 100.385 108.946C100.023 108.468 99.8412 107.836 99.8412 107.051C99.8412 105.821 100.295 104.848 101.201 104.131C102.108 103.397 103.34 103.029 104.9 103.029C105.788 103.029 106.667 103.175 107.538 103.465C108.408 103.738 109.16 104.208 109.795 104.874L107.918 106.846C107.229 105.787 106.16 105.258 104.709 105.258C103.948 105.258 103.377 105.386 102.996 105.642C102.633 105.881 102.452 106.214 102.452 106.641C102.452 107.085 102.633 107.418 102.996 107.64C103.359 107.862 103.812 108.041 104.356 108.178C104.918 108.314 105.516 108.451 106.151 108.588C106.803 108.707 107.402 108.895 107.946 109.151C108.508 109.407 108.97 109.766 109.333 110.227C109.695 110.671 109.876 111.286 109.876 112.071C109.876 113.318 109.396 114.291 108.435 114.991C107.492 115.691 106.169 116.041 104.465 116.041C103.286 116.041 102.216 115.862 101.255 115.503C100.295 115.145 99.5421 114.607 98.9982 113.89Z"/>
</mask>
<path d="M40.123 115.734V97.5481H45.7526L49.424 108.869C49.5872 109.382 49.7413 109.979 49.8863 110.662C50.0314 111.345 50.1583 112.011 50.2671 112.66H50.9198C51.0285 112.011 51.1554 111.345 51.3005 110.662C51.4455 109.979 51.5996 109.382 51.7628 108.869L55.4342 97.5481H61.0638V115.734H58.0722V103.234C58.0722 102.62 58.0813 102.107 58.0994 101.698C58.1357 101.288 58.2082 100.852 58.317 100.391L57.5011 100.186C57.4286 100.442 57.347 100.741 57.2564 101.083C57.1657 101.424 57.0207 101.894 56.8212 102.492L52.4971 115.734H48.6897L44.3656 102.492C44.1661 101.894 44.0211 101.424 43.9304 101.083C43.8398 100.741 43.7582 100.442 43.6857 100.186L42.8698 100.391C42.9786 100.852 43.0421 101.288 43.0602 101.698C43.0964 102.107 43.1146 102.62 43.1146 103.234V115.734H40.123Z" fill="#1D2A2A"/>
<path d="M63.8641 101.288V98.7263H66.9916V101.288H63.8641ZM64 115.734V103.337H66.8556V115.734H64Z" fill="#1D2A2A"/>
<path d="M69.5316 103.337H72.3872L72.2512 105.616H72.9311C73.0217 105.326 73.1668 105.027 73.3662 104.72C73.5656 104.413 73.8285 104.139 74.1549 103.9C74.4994 103.644 74.9073 103.439 75.3787 103.286C75.8682 103.115 76.4303 103.029 77.0648 103.029C78.5334 103.029 79.6938 103.49 80.5459 104.413C81.398 105.318 81.8241 106.598 81.8241 108.255V115.734H78.9685V109.1C78.9685 107.836 78.7056 106.906 78.1799 106.308C77.6722 105.693 76.8563 105.386 75.7322 105.386C74.5538 105.386 73.7016 105.762 73.1758 106.513C72.6501 107.247 72.3872 108.195 72.3872 109.356V115.734H69.5316V103.337Z" fill="#1D2A2A"/>
<path d="M83.8121 109.535C83.8121 108.511 83.9753 107.597 84.3017 106.795C84.6461 105.975 85.0994 105.292 85.6614 104.746C86.2416 104.182 86.9124 103.755 87.6739 103.465C88.4354 103.175 89.2422 103.029 90.0943 103.029C91.164 103.029 92.0524 103.277 92.7595 103.772C93.4847 104.267 93.9833 104.874 94.2553 105.591H94.9352L94.6632 103.26V97.5481H97.5188V115.734H94.6632L94.9352 113.48H94.2553C93.9833 114.197 93.4847 114.803 92.7595 115.298C92.0524 115.794 91.164 116.041 90.0943 116.041C89.2422 116.041 88.4354 115.896 87.6739 115.606C86.9124 115.316 86.2416 114.897 85.6614 114.351C85.0994 113.787 84.6461 113.104 84.3017 112.302C83.9753 111.482 83.8121 110.56 83.8121 109.535ZM86.6677 109.535C86.6677 110.116 86.7583 110.654 86.9396 111.149C87.1391 111.644 87.411 112.071 87.7555 112.43C88.1181 112.788 88.5442 113.07 89.0337 113.275C89.5232 113.463 90.0672 113.557 90.6655 113.557C91.2638 113.557 91.8077 113.463 92.2972 113.275C92.8049 113.07 93.2309 112.788 93.5754 112.43C93.938 112.071 94.21 111.644 94.3913 111.149C94.5907 110.654 94.6904 110.116 94.6904 109.535C94.6904 108.955 94.5907 108.417 94.3913 107.922C94.21 107.426 93.938 107 93.5754 106.641C93.2309 106.282 92.8049 106.009 92.2972 105.821C91.8077 105.616 91.2638 105.514 90.6655 105.514C90.0672 105.514 89.5232 105.616 89.0337 105.821C88.5442 106.009 88.1181 106.282 87.7555 106.641C87.411 107 87.1391 107.426 86.9396 107.922C86.7583 108.417 86.6677 108.955 86.6677 109.535Z" fill="#1D2A2A"/>
<path d="M98.9982 113.89L100.603 111.764C101.074 112.464 101.681 112.985 102.425 113.326C103.168 113.651 103.875 113.813 104.546 113.813C104.673 113.813 104.882 113.804 105.172 113.787C105.48 113.753 105.788 113.693 106.096 113.608C106.404 113.505 106.676 113.369 106.912 113.198C107.148 113.01 107.266 112.754 107.266 112.43C107.266 112.037 107.084 111.747 106.722 111.559C106.359 111.354 105.897 111.183 105.335 111.047C104.791 110.91 104.193 110.773 103.54 110.637C102.905 110.5 102.307 110.304 101.745 110.048C101.201 109.774 100.748 109.407 100.385 108.946C100.023 108.468 99.8412 107.836 99.8412 107.051C99.8412 105.821 100.295 104.848 101.201 104.131C102.108 103.397 103.34 103.029 104.9 103.029C105.788 103.029 106.667 103.175 107.538 103.465C108.408 103.738 109.16 104.208 109.795 104.874L107.918 106.846C107.229 105.787 106.16 105.258 104.709 105.258C103.948 105.258 103.377 105.386 102.996 105.642C102.633 105.881 102.452 106.214 102.452 106.641C102.452 107.085 102.633 107.418 102.996 107.64C103.359 107.862 103.812 108.041 104.356 108.178C104.918 108.314 105.516 108.451 106.151 108.588C106.803 108.707 107.402 108.895 107.946 109.151C108.508 109.407 108.97 109.766 109.333 110.227C109.695 110.671 109.876 111.286 109.876 112.071C109.876 113.318 109.396 114.291 108.435 114.991C107.492 115.691 106.169 116.041 104.465 116.041C103.286 116.041 102.216 115.862 101.255 115.503C100.295 115.145 99.5421 114.607 98.9982 113.89Z" fill="#1D2A2A"/>
<path d="M40.123 115.734V97.5481H45.7526L49.424 108.869C49.5872 109.382 49.7413 109.979 49.8863 110.662C50.0314 111.345 50.1583 112.011 50.2671 112.66H50.9198C51.0285 112.011 51.1554 111.345 51.3005 110.662C51.4455 109.979 51.5996 109.382 51.7628 108.869L55.4342 97.5481H61.0638V115.734H58.0722V103.234C58.0722 102.62 58.0813 102.107 58.0994 101.698C58.1357 101.288 58.2082 100.852 58.317 100.391L57.5011 100.186C57.4286 100.442 57.347 100.741 57.2564 101.083C57.1657 101.424 57.0207 101.894 56.8212 102.492L52.4971 115.734H48.6897L44.3656 102.492C44.1661 101.894 44.0211 101.424 43.9304 101.083C43.8398 100.741 43.7582 100.442 43.6857 100.186L42.8698 100.391C42.9786 100.852 43.0421 101.288 43.0602 101.698C43.0964 102.107 43.1146 102.62 43.1146 103.234V115.734H40.123Z" stroke="#1D2A2A" stroke-width="0.3" mask="url(#path-4-outside-3_1405_3450)"/>
<path d="M63.8641 101.288V98.7263H66.9916V101.288H63.8641ZM64 115.734V103.337H66.8556V115.734H64Z" stroke="#1D2A2A" stroke-width="0.3" mask="url(#path-4-outside-3_1405_3450)"/>
<path d="M69.5316 103.337H72.3872L72.2512 105.616H72.9311C73.0217 105.326 73.1668 105.027 73.3662 104.72C73.5656 104.413 73.8285 104.139 74.1549 103.9C74.4994 103.644 74.9073 103.439 75.3787 103.286C75.8682 103.115 76.4303 103.029 77.0648 103.029C78.5334 103.029 79.6938 103.49 80.5459 104.413C81.398 105.318 81.8241 106.598 81.8241 108.255V115.734H78.9685V109.1C78.9685 107.836 78.7056 106.906 78.1799 106.308C77.6722 105.693 76.8563 105.386 75.7322 105.386C74.5538 105.386 73.7016 105.762 73.1758 106.513C72.6501 107.247 72.3872 108.195 72.3872 109.356V115.734H69.5316V103.337Z" stroke="#1D2A2A" stroke-width="0.3" mask="url(#path-4-outside-3_1405_3450)"/>
<path d="M83.8121 109.535C83.8121 108.511 83.9753 107.597 84.3017 106.795C84.6461 105.975 85.0994 105.292 85.6614 104.746C86.2416 104.182 86.9124 103.755 87.6739 103.465C88.4354 103.175 89.2422 103.029 90.0943 103.029C91.164 103.029 92.0524 103.277 92.7595 103.772C93.4847 104.267 93.9833 104.874 94.2553 105.591H94.9352L94.6632 103.26V97.5481H97.5188V115.734H94.6632L94.9352 113.48H94.2553C93.9833 114.197 93.4847 114.803 92.7595 115.298C92.0524 115.794 91.164 116.041 90.0943 116.041C89.2422 116.041 88.4354 115.896 87.6739 115.606C86.9124 115.316 86.2416 114.897 85.6614 114.351C85.0994 113.787 84.6461 113.104 84.3017 112.302C83.9753 111.482 83.8121 110.56 83.8121 109.535ZM86.6677 109.535C86.6677 110.116 86.7583 110.654 86.9396 111.149C87.1391 111.644 87.411 112.071 87.7555 112.43C88.1181 112.788 88.5442 113.07 89.0337 113.275C89.5232 113.463 90.0672 113.557 90.6655 113.557C91.2638 113.557 91.8077 113.463 92.2972 113.275C92.8049 113.07 93.2309 112.788 93.5754 112.43C93.938 112.071 94.21 111.644 94.3913 111.149C94.5907 110.654 94.6904 110.116 94.6904 109.535C94.6904 108.955 94.5907 108.417 94.3913 107.922C94.21 107.426 93.938 107 93.5754 106.641C93.2309 106.282 92.8049 106.009 92.2972 105.821C91.8077 105.616 91.2638 105.514 90.6655 105.514C90.0672 105.514 89.5232 105.616 89.0337 105.821C88.5442 106.009 88.1181 106.282 87.7555 106.641C87.411 107 87.1391 107.426 86.9396 107.922C86.7583 108.417 86.6677 108.955 86.6677 109.535Z" stroke="#1D2A2A" stroke-width="0.3" mask="url(#path-4-outside-3_1405_3450)"/>
<path d="M98.9982 113.89L100.603 111.764C101.074 112.464 101.681 112.985 102.425 113.326C103.168 113.651 103.875 113.813 104.546 113.813C104.673 113.813 104.882 113.804 105.172 113.787C105.48 113.753 105.788 113.693 106.096 113.608C106.404 113.505 106.676 113.369 106.912 113.198C107.148 113.01 107.266 112.754 107.266 112.43C107.266 112.037 107.084 111.747 106.722 111.559C106.359 111.354 105.897 111.183 105.335 111.047C104.791 110.91 104.193 110.773 103.54 110.637C102.905 110.5 102.307 110.304 101.745 110.048C101.201 109.774 100.748 109.407 100.385 108.946C100.023 108.468 99.8412 107.836 99.8412 107.051C99.8412 105.821 100.295 104.848 101.201 104.131C102.108 103.397 103.34 103.029 104.9 103.029C105.788 103.029 106.667 103.175 107.538 103.465C108.408 103.738 109.16 104.208 109.795 104.874L107.918 106.846C107.229 105.787 106.16 105.258 104.709 105.258C103.948 105.258 103.377 105.386 102.996 105.642C102.633 105.881 102.452 106.214 102.452 106.641C102.452 107.085 102.633 107.418 102.996 107.64C103.359 107.862 103.812 108.041 104.356 108.178C104.918 108.314 105.516 108.451 106.151 108.588C106.803 108.707 107.402 108.895 107.946 109.151C108.508 109.407 108.97 109.766 109.333 110.227C109.695 110.671 109.876 111.286 109.876 112.071C109.876 113.318 109.396 114.291 108.435 114.991C107.492 115.691 106.169 116.041 104.465 116.041C103.286 116.041 102.216 115.862 101.255 115.503C100.295 115.145 99.5421 114.607 98.9982 113.89Z" stroke="#1D2A2A" stroke-width="0.3" mask="url(#path-4-outside-3_1405_3450)"/>
</svg>