<svg xmlns="http://www.w3.org/2000/svg" width="152" height="151" viewBox="0 0 152 151" fill="none">
<circle cx="75.6181" cy="75.5478" r="75.414" fill="#FDCE08"/>
<path d="M41.5311 55.1689V48.2516L42.4261 50.6219L34.9766 38.2383H39.1367L44.8447 47.7436H42.4502L48.1825 38.2383H52.0282L44.5787 50.6219L45.4494 48.2516V55.1689H41.5311Z" fill="#10534F"/>
<path d="M57.6584 55.3624C56.2717 55.3624 55.0381 55.0722 53.9578 54.4917C52.8936 53.9112 52.0471 53.1211 51.4182 52.1214C50.8055 51.1056 50.4991 49.9527 50.4991 48.6627C50.4991 47.3567 50.8055 46.2038 51.4182 45.204C52.0471 44.1882 52.8936 43.3981 53.9578 42.8337C55.0381 42.2533 56.2717 41.963 57.6584 41.963C59.0289 41.963 60.2544 42.2533 61.3347 42.8337C62.4151 43.3981 63.2616 44.1801 63.8743 45.1799C64.4871 46.1796 64.7934 47.3405 64.7934 48.6627C64.7934 49.9527 64.4871 51.1056 63.8743 52.1214C63.2616 53.1211 62.4151 53.9112 61.3347 54.4917C60.2544 55.0722 59.0289 55.3624 57.6584 55.3624ZM57.6584 52.2665C58.2872 52.2665 58.8516 52.1214 59.3514 51.8312C59.8513 51.5409 60.2463 51.1298 60.5366 50.5977C60.8268 50.0494 60.9719 49.4045 60.9719 48.6627C60.9719 47.9049 60.8268 47.2599 60.5366 46.7278C60.2463 46.1957 59.8513 45.7845 59.3514 45.4943C58.8516 45.204 58.2872 45.0589 57.6584 45.0589C57.0295 45.0589 56.4651 45.204 55.9653 45.4943C55.4654 45.7845 55.0623 46.1957 54.756 46.7278C54.4657 47.2599 54.3206 47.9049 54.3206 48.6627C54.3206 49.4045 54.4657 50.0494 54.756 50.5977C55.0623 51.1298 55.4654 51.5409 55.9653 51.8312C56.4651 52.1214 57.0295 52.2665 57.6584 52.2665Z" fill="#10534F"/>
<path d="M72.8058 55.3624C71.7255 55.3624 70.758 55.1528 69.9034 54.7336C69.0649 54.3143 68.4119 53.6774 67.9443 52.8228C67.4767 51.9521 67.2429 50.8476 67.2429 49.5093V42.1565H71.016V48.953C71.016 50.0333 71.2417 50.8315 71.6932 51.3475C72.1608 51.8473 72.8139 52.0972 73.6523 52.0972C74.2328 52.0972 74.7488 51.9763 75.2003 51.7344C75.6518 51.4764 76.0065 51.0895 76.2645 50.5735C76.5225 50.0414 76.6515 49.3803 76.6515 48.5902V42.1565H80.4246V55.1689H76.845V51.5893L77.498 52.6293C77.0627 53.5323 76.4177 54.2176 75.5631 54.6852C74.7246 55.1367 73.8055 55.3624 72.8058 55.3624Z" fill="#10534F"/>
<path d="M91.8292 41.963C92.8612 41.963 93.7802 42.1726 94.5865 42.5919C95.4088 42.995 96.0538 43.6238 96.5214 44.4784C96.989 45.3169 97.2228 46.3972 97.2228 47.7195V55.1689H93.4497V48.2999C93.4497 47.2518 93.2159 46.4779 92.7483 45.978C92.2968 45.4782 91.6518 45.2282 90.8133 45.2282C90.2167 45.2282 89.6766 45.3572 89.1928 45.6152C88.7252 45.8571 88.3544 46.236 88.0803 46.752C87.8223 47.268 87.6933 47.9291 87.6933 48.7353V55.1689H83.9201V42.1565H87.524V45.7603L86.8467 44.6719C87.3144 43.8012 87.9835 43.132 88.8542 42.6644C89.7249 42.1968 90.7166 41.963 91.8292 41.963Z" fill="#10534F"/>
<path d="M106.857 60.0546C105.631 60.0546 104.446 59.9015 103.301 59.5951C102.173 59.3049 101.229 58.8614 100.471 58.2648L101.971 55.5559C102.519 56.0074 103.213 56.3622 104.051 56.6201C104.906 56.8943 105.744 57.0313 106.566 57.0313C107.905 57.0313 108.872 56.733 109.469 56.1364C110.082 55.5398 110.388 54.653 110.388 53.4759V51.5168L110.63 48.2516L110.581 44.9622V42.1565H114.161V52.9921C114.161 55.4108 113.532 57.1926 112.274 58.3374C111.017 59.4822 109.211 60.0546 106.857 60.0546ZM106.276 54.5401C105.067 54.5401 103.97 54.2821 102.987 53.7661C102.019 53.234 101.237 52.5003 100.641 51.5651C100.06 50.6138 99.77 49.5093 99.77 48.2516C99.77 46.9777 100.06 45.8732 100.641 44.938C101.237 43.9866 102.019 43.253 102.987 42.737C103.97 42.221 105.067 41.963 106.276 41.963C107.373 41.963 108.34 42.1888 109.179 42.6403C110.017 43.0756 110.67 43.7609 111.138 44.6961C111.605 45.6152 111.839 46.8004 111.839 48.2516C111.839 49.6866 111.605 50.8718 111.138 51.807C110.67 52.7261 110.017 53.4114 109.179 53.8629C108.34 54.3143 107.373 54.5401 106.276 54.5401ZM107.026 51.4442C107.687 51.4442 108.276 51.3152 108.792 51.0572C109.308 50.7831 109.711 50.4042 110.001 49.9204C110.291 49.4367 110.436 48.8804 110.436 48.2516C110.436 47.6066 110.291 47.0503 110.001 46.5827C109.711 46.0989 109.308 45.7281 108.792 45.4701C108.276 45.196 107.687 45.0589 107.026 45.0589C106.365 45.0589 105.776 45.196 105.26 45.4701C104.744 45.7281 104.333 46.0989 104.027 46.5827C103.737 47.0503 103.591 47.6066 103.591 48.2516C103.591 48.8804 103.737 49.4367 104.027 49.9204C104.333 50.4042 104.744 50.7831 105.26 51.0572C105.776 51.3152 106.365 51.4442 107.026 51.4442Z" fill="#10534F"/>
<path d="M48.26 67.4638H52.1783V84.3945H48.26V67.4638ZM40.5687 84.3945H36.6504V67.4638H40.5687V84.3945ZM48.5503 77.4529H40.2784V74.1393H48.5503V77.4529Z" fill="#10534F"/>
<path d="M63.8996 83.3867V80.8471L63.6577 80.2908V75.7437C63.6577 74.9375 63.4078 74.3087 62.9079 73.8572C62.4242 73.4057 61.6744 73.1799 60.6585 73.1799C59.9652 73.1799 59.2799 73.2928 58.6027 73.5186C57.9416 73.7282 57.3772 74.0184 56.9096 74.3893L55.5552 71.7529C56.2646 71.2531 57.1192 70.8661 58.1189 70.592C59.1187 70.3179 60.1345 70.1808 61.1665 70.1808C63.1498 70.1808 64.6896 70.6484 65.7861 71.5836C66.8826 72.5188 67.4308 73.9781 67.4308 75.9614V83.3867H63.8996ZM59.9329 83.5802C58.9171 83.5802 58.0464 83.4109 57.3208 83.0723C56.5952 82.7175 56.0389 82.2419 55.6519 81.6453C55.2649 81.0487 55.0714 80.3795 55.0714 79.6378C55.0714 78.8638 55.2569 78.1866 55.6277 77.6061C56.0147 77.0256 56.6194 76.5741 57.4417 76.2516C58.2641 75.913 59.3363 75.7437 60.6585 75.7437H64.1172V77.9447H61.0697C60.1829 77.9447 59.5701 78.0898 59.2315 78.3801C58.909 78.6703 58.7478 79.0331 58.7478 79.4685C58.7478 79.9522 58.9332 80.3392 59.3041 80.6294C59.6911 80.9035 60.2151 81.0406 60.8762 81.0406C61.5051 81.0406 62.0694 80.8955 62.5693 80.6052C63.0691 80.2989 63.4319 79.8555 63.6577 79.275L64.2382 81.0164C63.9641 81.8549 63.4642 82.4918 62.7386 82.9272C62.013 83.3625 61.0778 83.5802 59.9329 83.5802Z" fill="#10534F"/>
<path d="M78.537 83.5802C77.4406 83.5802 76.4811 83.3383 75.6588 82.8546C74.8365 82.3709 74.1915 81.6372 73.7239 80.6536C73.2724 79.6539 73.0466 78.3962 73.0466 76.8805C73.0466 75.3487 73.2643 74.091 73.6997 73.1074C74.135 72.1238 74.7639 71.3901 75.5862 70.9064C76.4086 70.4227 77.3922 70.1808 78.537 70.1808C79.7625 70.1808 80.8589 70.463 81.8264 71.0273C82.81 71.5756 83.584 72.3495 84.1483 73.3493C84.7288 74.349 85.019 75.5261 85.019 76.8805C85.019 78.2511 84.7288 79.4362 84.1483 80.4359C83.584 81.4357 82.81 82.2096 81.8264 82.7579C80.8589 83.3061 79.7625 83.5802 78.537 83.5802ZM70.8457 88.0789V70.3743H74.4495V73.0348L74.3769 76.9047L74.6188 80.7504V88.0789H70.8457ZM77.884 80.4843C78.5128 80.4843 79.0691 80.3392 79.5529 80.049C80.0527 79.7587 80.4478 79.3475 80.738 78.8154C81.0444 78.2672 81.1975 77.6222 81.1975 76.8805C81.1975 76.1227 81.0444 75.4777 80.738 74.9456C80.4478 74.4135 80.0527 74.0023 79.5529 73.7121C79.0691 73.4218 78.5128 73.2767 77.884 73.2767C77.2551 73.2767 76.6908 73.4218 76.1909 73.7121C75.691 74.0023 75.296 74.4135 75.0058 74.9456C74.7155 75.4777 74.5704 76.1227 74.5704 76.8805C74.5704 77.6222 74.7155 78.2672 75.0058 78.8154C75.296 79.3475 75.691 79.7587 76.1909 80.049C76.6908 80.3392 77.2551 80.4843 77.884 80.4843Z" fill="#10534F"/>
<path d="M95.2362 83.5802C94.1397 83.5802 93.1803 83.3383 92.358 82.8546C91.5356 82.3709 90.8907 81.6372 90.4231 80.6536C89.9716 79.6539 89.7458 78.3962 89.7458 76.8805C89.7458 75.3487 89.9635 74.091 90.3989 73.1074C90.8342 72.1238 91.4631 71.3901 92.2854 70.9064C93.1078 70.4227 94.0914 70.1808 95.2362 70.1808C96.4617 70.1808 97.5581 70.463 98.5256 71.0273C99.5092 71.5756 100.283 72.3495 100.848 73.3493C101.428 74.349 101.718 75.5261 101.718 76.8805C101.718 78.2511 101.428 79.4362 100.848 80.4359C100.283 81.4357 99.5092 82.2096 98.5256 82.7579C97.5581 83.3061 96.4617 83.5802 95.2362 83.5802ZM87.5448 88.0789V70.3743H91.1487V73.0348L91.0761 76.9047L91.318 80.7504V88.0789H87.5448ZM94.5832 80.4843C95.212 80.4843 95.7683 80.3392 96.252 80.049C96.7519 79.7587 97.1469 79.3475 97.4372 78.8154C97.7435 78.2672 97.8967 77.6222 97.8967 76.8805C97.8967 76.1227 97.7435 75.4777 97.4372 74.9456C97.1469 74.4135 96.7519 74.0023 96.252 73.7121C95.7683 73.4218 95.212 73.2767 94.5832 73.2767C93.9543 73.2767 93.3899 73.4218 92.8901 73.7121C92.3902 74.0023 91.9952 74.4135 91.7049 74.9456C91.4147 75.4777 91.2696 76.1227 91.2696 76.8805C91.2696 77.6222 91.4147 78.2672 91.7049 78.8154C91.9952 79.3475 92.3902 79.7587 92.8901 80.049C93.3899 80.3392 93.9543 80.4843 94.5832 80.4843Z" fill="#10534F"/>
<path d="M105.534 88.2724C104.857 88.2724 104.188 88.1676 103.527 87.958C102.866 87.7484 102.326 87.4581 101.906 87.0873L103.285 84.4025C103.575 84.6605 103.906 84.8621 104.277 85.0072C104.664 85.1523 105.043 85.2249 105.413 85.2249C105.946 85.2249 106.365 85.0959 106.671 84.8379C106.994 84.596 107.284 84.1849 107.542 83.6044L108.219 82.0081L108.509 81.5969L113.177 70.3743H116.805L110.928 84.1849C110.509 85.233 110.025 86.0553 109.477 86.6519C108.945 87.2485 108.348 87.6678 107.687 87.9096C107.042 88.1515 106.325 88.2724 105.534 88.2724ZM107.76 83.8946L101.955 70.3743H105.849L110.348 81.2583L107.76 83.8946Z" fill="#10534F"/>
<path d="M39.2368 113.62V96.6894H42.4778L49.6855 108.638H47.9682L55.0549 96.6894H58.2717L58.3201 113.62H54.6437L54.6195 102.325H55.2968L49.6371 111.83H47.8715L42.0908 102.325H42.9132V113.62H39.2368Z" fill="#10534F"/>
<path d="M62.0709 113.62V100.608H65.844V113.62H62.0709ZM63.9575 98.7936C63.2641 98.7936 62.6998 98.5921 62.2644 98.189C61.829 97.7858 61.6114 97.286 61.6114 96.6894C61.6114 96.0928 61.829 95.5929 62.2644 95.1898C62.6998 94.7867 63.2641 94.5851 63.9575 94.5851C64.6508 94.5851 65.2152 94.7786 65.6505 95.1656C66.0859 95.5365 66.3036 96.0202 66.3036 96.6168C66.3036 97.2457 66.0859 97.7697 65.6505 98.189C65.2313 98.5921 64.6669 98.7936 63.9575 98.7936Z" fill="#10534F"/>
<path d="M77.2548 100.414C78.2868 100.414 79.2059 100.624 80.0121 101.043C80.8345 101.446 81.4794 102.075 81.9471 102.93C82.4147 103.768 82.6485 104.848 82.6485 106.171V113.62H78.8753V106.751C78.8753 105.703 78.6415 104.929 78.1739 104.429C77.7224 103.929 77.0775 103.679 76.239 103.679C75.6424 103.679 75.1022 103.808 74.6185 104.066C74.1509 104.308 73.78 104.687 73.5059 105.203C73.2479 105.719 73.1189 106.38 73.1189 107.186V113.62H69.3458V100.608H72.9496V104.211L72.2724 103.123C72.74 102.252 73.4092 101.583 74.2799 101.116C75.1506 100.648 76.1423 100.414 77.2548 100.414Z" fill="#10534F"/>
<path d="M91.7502 113.814C90.5247 113.814 89.4202 113.539 88.4366 112.991C87.453 112.427 86.671 111.645 86.0905 110.645C85.5262 109.645 85.244 108.468 85.244 107.114C85.244 105.743 85.5262 104.558 86.0905 103.558C86.671 102.559 87.453 101.785 88.4366 101.236C89.4202 100.688 90.5247 100.414 91.7502 100.414C92.8467 100.414 93.8061 100.656 94.6284 101.14C95.4508 101.623 96.0877 102.357 96.5392 103.341C96.9906 104.324 97.2164 105.582 97.2164 107.114C97.2164 108.63 96.9987 109.887 96.5634 110.887C96.128 111.871 95.4991 112.604 94.6768 113.088C93.8706 113.572 92.895 113.814 91.7502 113.814ZM92.4032 110.718C93.016 110.718 93.5723 110.573 94.0721 110.282C94.572 109.992 94.967 109.581 95.2573 109.049C95.5636 108.501 95.7168 107.856 95.7168 107.114C95.7168 106.356 95.5636 105.711 95.2573 105.179C94.967 104.647 94.572 104.236 94.0721 103.945C93.5723 103.655 93.016 103.51 92.4032 103.51C91.7744 103.51 91.21 103.655 90.7102 103.945C90.2103 104.236 89.8072 104.647 89.5008 105.179C89.2106 105.711 89.0655 106.356 89.0655 107.114C89.0655 107.856 89.2106 108.501 89.5008 109.049C89.8072 109.581 90.2103 109.992 90.7102 110.282C91.21 110.573 91.7744 110.718 92.4032 110.718ZM95.8136 113.62V110.96L95.8861 107.09L95.6443 103.244V95.6735H99.4174V113.62H95.8136Z" fill="#10534F"/>
<path d="M107.287 113.814C106.175 113.814 105.102 113.685 104.07 113.427C103.055 113.152 102.248 112.814 101.652 112.411L102.91 109.702C103.506 110.073 104.208 110.379 105.014 110.621C105.836 110.847 106.642 110.96 107.432 110.96C108.303 110.96 108.916 110.855 109.271 110.645C109.641 110.435 109.827 110.145 109.827 109.774C109.827 109.468 109.682 109.242 109.392 109.097C109.117 108.936 108.747 108.815 108.279 108.734C107.811 108.654 107.295 108.573 106.731 108.492C106.183 108.412 105.626 108.307 105.062 108.178C104.498 108.033 103.982 107.823 103.514 107.549C103.047 107.275 102.668 106.904 102.377 106.437C102.103 105.969 101.966 105.364 101.966 104.623C101.966 103.8 102.2 103.075 102.668 102.446C103.151 101.817 103.845 101.325 104.748 100.97C105.651 100.6 106.731 100.414 107.989 100.414C108.876 100.414 109.779 100.511 110.698 100.704C111.617 100.898 112.383 101.18 112.995 101.551L111.738 104.236C111.109 103.865 110.472 103.615 109.827 103.486C109.198 103.341 108.585 103.268 107.989 103.268C107.15 103.268 106.538 103.381 106.151 103.607C105.764 103.832 105.57 104.123 105.57 104.477C105.57 104.8 105.707 105.042 105.981 105.203C106.271 105.364 106.65 105.493 107.118 105.59C107.586 105.687 108.094 105.775 108.642 105.856C109.206 105.921 109.77 106.025 110.335 106.171C110.899 106.316 111.407 106.525 111.859 106.799C112.326 107.057 112.705 107.42 112.995 107.888C113.286 108.339 113.431 108.936 113.431 109.678C113.431 110.484 113.189 111.201 112.705 111.83C112.221 112.443 111.52 112.927 110.601 113.281C109.698 113.636 108.593 113.814 107.287 113.814Z" fill="#10534F"/>
</svg>