<svg xmlns="http://www.w3.org/2000/svg" width="138" height="139" viewBox="0 0 138 139" fill="none">
<path d="M100 34H37M68.5 2V66M50.125 52.6667L86.875 15.3333M86.875 52.6667L50.125 15.3333" stroke="#FFD526" stroke-width="4" stroke-linecap="round" stroke-linejoin="round"/>
<path d="M136 120.5H103M119.5 104V137M109.875 130.125L129.125 110.875M129.125 130.125L109.875 110.875" stroke="#FFE36D" stroke-width="4" stroke-linecap="round" stroke-linejoin="round"/>
<path d="M24 106.933C24.0024 107.268 23.6361 107.574 23.2646 107.837C22.8202 108.152 22.4874 108.341 22.1767 108.453L15.7539 110.826L13.4219 117.362C13.3077 117.675 13.1117 118.055 12.8913 118.398C12.6715 118.74 12.3233 119.006 11.9171 119C11.5208 118.994 11.2167 118.83 10.9565 118.398C10.7137 117.994 10.5207 117.675 10.4065 117.362L8.07455 110.826L1.65168 108.453C1.16192 108.215 0.689979 107.853 0.689979 107.853C0.689979 107.853 0 107.253 0 106.919C0 106.585 0.218906 106.241 0.689979 105.909C0.998888 105.691 1.3439 105.501 1.65168 105.385L8.07455 103.012L10.4065 96.4761C10.5207 96.163 10.6403 95.9232 10.8954 95.5998C11.1584 95.2666 11.5859 95 11.9142 95C12.2425 95 12.6924 95.2545 12.933 95.5998C13.1686 95.9382 13.3077 96.163 13.4219 96.4761L15.7539 103.012L22.1767 105.385C22.4874 105.497 22.8969 105.705 23.2937 106.012C23.6547 106.291 24.0024 106.597 24 106.933Z" fill="#FFE36D"/>
</svg>