<svg xmlns="http://www.w3.org/2000/svg" width="22" height="22" viewBox="0 0 22 22" fill="none">
<g clip-path="url(#clip0_926_2448)">
<path d="M20.7778 10.2545C21.0049 10.0853 21.1734 9.84922 21.2596 9.57943C21.3458 9.30965 21.3454 9.01965 21.2585 8.7501C21.1715 8.48054 21.0024 8.24496 20.7748 8.07637C20.5473 7.90778 20.2726 7.81464 19.9894 7.81002L14.4894 7.60224C14.4624 7.60037 14.4365 7.59072 14.4148 7.57446C14.3931 7.5582 14.3766 7.53601 14.3672 7.51057L12.4667 2.37724C12.3712 2.11607 12.1977 1.89056 11.9698 1.73123C11.7419 1.5719 11.4706 1.48645 11.1925 1.48645C10.9144 1.48645 10.6431 1.5719 10.4152 1.73123C10.1873 1.89056 10.0138 2.11607 9.91833 2.37724L8.02389 7.5289C8.01452 7.55434 7.998 7.57653 7.97632 7.59279C7.95463 7.60906 7.92871 7.6187 7.90167 7.62057L2.40167 7.82835C2.11848 7.83297 1.84384 7.92611 1.61626 8.0947C1.38868 8.26329 1.21957 8.49888 1.13264 8.76843C1.04571 9.03798 1.04532 9.32798 1.13152 9.59777C1.21773 9.86755 1.38621 10.1036 1.61333 10.2728L5.92778 13.6645C5.94937 13.6815 5.96551 13.7044 5.9742 13.7305C5.98289 13.7565 5.98375 13.7846 5.97667 13.8111L4.49167 19.0728C4.41471 19.3407 4.42217 19.6259 4.51302 19.8894C4.60387 20.153 4.7737 20.3821 4.99941 20.5457C5.22512 20.7093 5.49575 20.7995 5.77448 20.8038C6.05322 20.8081 6.32652 20.7265 6.55722 20.57L11.1161 17.5145C11.1386 17.499 11.1652 17.4907 11.1925 17.4907C11.2198 17.4907 11.2464 17.499 11.2689 17.5145L15.8278 20.57C16.0554 20.7319 16.3277 20.8188 16.6069 20.8188C16.8862 20.8188 17.1585 20.7319 17.3861 20.57C17.6119 20.408 17.7819 20.1799 17.8727 19.9173C17.9635 19.6546 17.9707 19.3703 17.8933 19.1033L16.3961 13.8233C16.3882 13.7968 16.3886 13.7685 16.3974 13.7423C16.4061 13.716 16.4228 13.6931 16.445 13.6767L20.7778 10.2545Z" fill="#FFD526"/>
</g>
<defs>
<clipPath id="clip0_926_2448">
<rect width="22" height="22" fill="white"/>
</clipPath>
</defs>
</svg>